<svg width="30" height="30" viewBox="0 0 30 30" fill="none" xmlns="http://www.w3.org/2000/svg">
<path fill-rule="evenodd" clip-rule="evenodd" d="M30 24.4728V23.6845C29.985 23.6245 29.9708 23.5644 29.9565 23.5043C29.9067 23.2942 29.8568 23.084 29.7752 22.8738C29.743 22.78 29.711 22.6862 29.6789 22.5924C29.4648 21.9658 29.2511 21.3406 29.0035 20.7268C28.1343 18.5648 27.2427 16.4178 26.1563 14.3533C25.6917 13.46 25.1822 12.5892 24.6502 11.7409C24.4261 11.3843 24.1762 11.0457 23.9262 10.707C23.75 10.4683 23.5737 10.2295 23.4064 9.98428C23.2272 9.71745 23.0689 9.44009 22.9101 9.16179C22.8366 9.03296 22.763 8.90394 22.6871 8.77566C22.6542 8.7191 22.6272 8.65957 22.6005 8.60081C22.5847 8.56598 22.569 8.53142 22.5523 8.4979L22.5972 8.45286C22.6289 8.47191 22.6624 8.49036 22.6963 8.50905C22.7827 8.55667 22.872 8.60588 22.9419 8.67056C23.2221 8.91671 23.4973 9.16783 23.7732 9.41964C23.977 9.60555 24.1811 9.79184 24.388 9.97678C24.4325 10.0214 24.4977 10.0411 24.562 10.0606C24.5843 10.0674 24.6065 10.0741 24.6277 10.0819C24.6353 10.063 24.6447 10.0431 24.6544 10.0228C24.6832 9.96237 24.7139 9.89781 24.7027 9.84165C24.5753 9.15851 24.4479 8.47538 24.2831 7.80726C24.0358 6.7788 23.6687 5.78788 23.1292 4.87203C22.7321 4.1964 22.2301 3.61836 21.5183 3.24301C21.0013 2.97276 20.4468 2.85265 19.8624 2.86016C19.6151 2.86767 19.4053 2.8001 19.233 2.62744C19.1269 2.52107 19.0179 2.41609 18.9092 2.3113C18.7647 2.17204 18.6206 2.03312 18.4837 1.89176C18.4367 1.84462 18.4079 1.77557 18.3795 1.70753C18.3672 1.67804 18.355 1.64875 18.3414 1.62151C18.3764 1.60688 18.4103 1.58884 18.444 1.57093C18.4967 1.54287 18.5488 1.51514 18.6036 1.5014C18.983 1.42276 19.3566 1.49285 19.7245 1.56186C19.7781 1.57191 19.8316 1.58194 19.8849 1.59148C20.0534 1.61962 20.2219 1.65362 20.3922 1.68798C20.4946 1.70863 20.5975 1.72941 20.7016 1.74913C20.7316 1.53893 20.6117 1.44885 20.4843 1.3963C20.4135 1.36819 20.343 1.33988 20.2725 1.3116C19.9101 1.16617 19.5494 1.02147 19.1731 0.908345C18.2714 0.644571 17.3408 0.514028 16.4168 0.384418C16.2889 0.36648 16.1612 0.34856 16.0336 0.330307C15.8855 0.310518 15.7406 0.258127 15.5947 0.205361C15.5192 0.178059 15.4434 0.150657 15.3668 0.127619C15.327 0.115492 15.2873 0.102166 15.2475 0.0888403C15.1149 0.0444202 14.9824 0 14.8498 0C14.5197 0 14.1845 0.0259301 13.8484 0.0519278C13.7801 0.057209 13.7118 0.0624929 13.6435 0.0675628C13.5536 0.0750698 13.4412 0.112605 13.3737 0.172661C13.1702 0.370056 12.9148 0.400202 12.6631 0.429912C12.6276 0.434099 12.5922 0.438276 12.557 0.442912C11.3357 0.608065 10.1519 0.878317 9.05046 1.44885C7.71676 2.13949 6.81764 3.228 6.1433 4.53422C5.45397 5.87796 5.00441 7.30429 4.72718 8.78317C4.63691 9.25183 4.57361 9.72499 4.51019 10.199C4.45781 10.5905 4.40535 10.9825 4.33756 11.3731C4.27013 11.7634 4.14275 12.1538 4.00039 12.5216C2.80872 15.5928 1.80275 18.7329 0.797974 21.8693C0.754035 22.0064 0.710099 22.1436 0.66615 22.2807C0.629283 22.3961 0.591885 22.5114 0.554501 22.6266C0.34875 23.2607 0.143403 23.8935 0.0292722 24.5478C-0.0756254 25.1559 0.104199 25.6964 0.523789 26.1393C0.980843 26.6798 1.58775 26.9951 2.22463 27.2654C3.31107 27.7233 4.44246 27.9785 5.59633 28.1587C6.02342 28.2262 6.4505 28.2788 6.87758 28.3088C7.18478 28.3313 7.30467 28.2338 7.38709 27.9485C7.6793 26.9501 7.84414 25.9366 7.74673 24.8931C7.72675 24.713 7.73341 24.5328 7.74007 24.3526C7.7434 24.2626 7.74673 24.1725 7.74673 24.0824C7.76172 24.0786 7.77483 24.073 7.78794 24.0674C7.80106 24.0617 7.81417 24.0561 7.82915 24.0524C7.85431 24.0804 7.88363 24.1063 7.91323 24.1324C7.963 24.1764 8.01356 24.2211 8.04644 24.2776C8.48102 25.0208 9.02798 25.6739 9.64988 26.2744C9.70982 26.342 9.76976 26.4171 9.82221 26.4921C9.94209 26.6798 9.90463 26.7924 9.67985 26.845C9.53748 26.875 9.38763 26.8825 9.25276 26.86C8.73577 26.7624 8.36113 26.9425 8.12137 27.408C7.95653 27.7233 7.80668 28.0461 7.65682 28.3689C7.56691 28.5791 7.61187 28.7743 7.79169 28.8869C7.80156 28.8933 7.81145 28.8999 7.82137 28.9064C8.05247 29.0585 8.29762 29.2199 8.56344 29.2847C9.3127 29.4799 10.0695 29.6451 10.8262 29.7727C11.4331 29.8703 12.055 29.9303 12.6694 29.9604C15.0896 30.073 17.4947 29.9754 19.8399 29.2772C20.324 29.1312 20.7973 28.9417 21.2723 28.7515C21.481 28.6679 21.69 28.5842 21.9004 28.504C21.9639 28.4849 22.0166 28.4551 22.0722 28.4236C22.0823 28.4179 22.0924 28.4122 22.1027 28.4064C22.5223 28.1887 22.5298 28.1362 22.3575 27.6932C22.286 27.517 22.2266 27.3326 22.1675 27.1491C22.1461 27.0825 22.1247 27.016 22.1027 26.9501C21.9304 26.4171 21.5782 26.1168 21.0088 26.0943C20.8364 26.0868 20.6641 26.0717 20.4918 26.0417C20.3269 26.0117 20.3045 25.9366 20.3944 25.794C20.4318 25.7339 20.4843 25.6739 20.5442 25.6288C21.1661 25.1784 21.5932 24.5703 21.9229 23.9022C22.1801 23.3814 22.4053 22.8485 22.6306 22.3154C22.7138 22.1185 22.7971 21.9216 22.882 21.7252C22.885 21.716 22.8881 21.7071 22.8911 21.6984C22.9027 21.6645 22.9135 21.6334 22.9194 21.5976C22.9644 21.4099 22.8894 21.3198 22.6946 21.3498C22.4324 21.3949 22.1701 21.4549 21.9079 21.5225C21.86 21.5345 21.812 21.5465 21.764 21.5585C21.3312 21.6668 20.8935 21.7762 20.4618 21.8979C20.355 21.9291 20.2588 21.9841 20.1621 22.0394C20.096 22.0772 20.0298 22.1151 19.9598 22.1456C19.9277 22.1601 19.8956 22.1756 19.8635 22.1911C19.7457 22.248 19.628 22.3048 19.5102 22.3107C19.293 22.3183 19.1431 22.4083 18.9932 22.5585L18.9931 22.5587C18.2439 23.3168 17.4946 24.0749 16.7305 24.8256C16.3558 25.1934 15.9587 25.5463 15.5616 25.8841C14.9547 26.402 14.5876 26.402 13.9806 25.8766C12.8867 24.9307 11.7928 23.9773 10.6989 23.0239C10.6663 22.9951 10.6337 22.9654 10.6009 22.9354C10.5054 22.848 10.4077 22.7587 10.3017 22.6861C10.2011 22.6224 10.0929 22.5775 9.98522 22.5327C9.94061 22.5142 9.89607 22.4957 9.85218 22.4759C9.81317 22.4588 9.77257 22.4449 9.73219 22.431C9.64849 22.4023 9.56573 22.374 9.50002 22.3183C9.27524 22.1306 9.0055 22.0555 8.73577 21.9804C8.60585 21.9453 8.47593 21.9105 8.34611 21.8757C7.92188 21.7622 7.49869 21.649 7.07989 21.5225C6.88508 21.4625 6.69776 21.3649 6.53292 21.2448C6.32312 21.0946 6.28566 20.8619 6.38307 20.6592C6.4505 20.5166 6.53292 20.5016 6.63782 20.6217C6.6528 20.6404 6.66779 20.6611 6.68277 20.6817C6.69776 20.7024 6.71274 20.723 6.72773 20.7418C6.90755 21.0045 7.15481 21.1997 7.46201 21.2898C7.95653 21.4324 8.45854 21.56 8.96055 21.6802C9.03596 21.6953 9.11474 21.6833 9.19237 21.6716C9.23044 21.6658 9.26823 21.6601 9.30521 21.6576C9.29772 21.6126 9.29522 21.5642 9.29272 21.5158C9.28773 21.4191 9.28273 21.3223 9.23778 21.2523C8.94556 20.7737 8.6407 20.3078 8.33584 19.8419C8.23422 19.6866 8.13261 19.5313 8.03146 19.3755C7.94154 19.2404 7.85163 19.1053 7.77671 18.9626C7.74307 18.9065 7.72621 18.8461 7.7073 18.7784C7.70094 18.7556 7.69434 18.732 7.68679 18.7074C7.87411 18.6924 7.9865 18.7674 8.06892 18.8801C8.14952 18.981 8.21206 19.088 8.27812 19.201C8.28575 19.214 8.29343 19.2272 8.30119 19.2404C8.65335 19.8635 9.00551 20.4865 9.36515 21.1096C9.40262 21.1697 9.44008 21.2297 9.48504 21.2748C9.69483 21.4925 10.032 21.4249 10.1219 21.1472C10.1629 21.033 10.1873 20.9161 10.2119 20.7981C10.2278 20.7221 10.2437 20.6456 10.2643 20.5691C10.3092 20.3814 10.3917 20.2463 10.6239 20.2839C10.7888 20.3139 10.9012 20.2163 10.9836 20.0887C11.0922 19.9235 11.2009 19.7602 11.3095 19.5969C11.4182 19.4337 11.5268 19.2704 11.6354 19.1053C11.8153 18.8275 12.0026 18.5497 12.1899 18.2795C12.2274 18.2269 12.2798 18.1744 12.3697 18.1444C12.3248 18.242 12.2798 18.332 12.2274 18.4221C12.0663 18.6886 11.9033 18.9551 11.7403 19.2216C11.5774 19.4881 11.4144 19.7546 11.2533 20.0211C11.2079 20.0976 11.1631 20.1747 11.1182 20.2518C11.0001 20.4548 10.8816 20.6586 10.7513 20.8544C10.6867 20.9515 10.6078 21.0401 10.5288 21.1289C10.4795 21.1842 10.4302 21.2397 10.3842 21.2973C10.3392 21.3574 10.2793 21.4474 10.2942 21.515C10.4291 22.2732 10.504 22.3032 11.1859 22.2882C12.0614 22.2732 12.9403 22.2648 13.8203 22.2565C14.2582 22.2523 14.6964 22.2482 15.1345 22.2432C15.704 22.2357 16.2717 22.23 16.8393 22.2244C17.4068 22.2188 17.9743 22.2132 18.5437 22.2056C18.8958 22.2056 18.9558 22.1531 19.0007 21.8078C19.0307 21.5676 19.1506 21.4099 19.3754 21.3198C19.6077 21.2297 19.81 21.3048 19.9748 21.47C20.1172 21.6201 20.2745 21.6426 20.4543 21.5901C20.7578 21.5112 21.0612 21.4305 21.3647 21.3498C21.6681 21.2691 21.9716 21.1884 22.275 21.1096C22.6197 21.012 22.8894 20.8244 23.0768 20.5091C23.1303 20.4256 23.1981 20.3468 23.265 20.2691C23.2823 20.2489 23.2996 20.2289 23.3165 20.2088C23.5038 20.3514 23.5338 20.5016 23.4589 20.7568C23.3787 21.0433 23.2973 21.3298 23.2159 21.6164C23.0008 22.3738 22.7854 23.1323 22.5897 23.8947C22.2975 25.0283 22.365 26.1618 22.7096 27.2804L22.7135 27.293C22.9269 27.9862 22.9313 28.0003 23.6537 27.8809C25.0024 27.6557 26.3361 27.3479 27.6023 26.8224C28.0669 26.6348 28.5164 26.387 28.9435 26.1243C29.4605 25.8015 29.7902 25.321 29.9176 24.713C29.9282 24.6545 29.9501 24.5998 29.9726 24.5435C29.9819 24.5203 29.9913 24.4968 30 24.4728ZM15.4043 2.84139C15.4174 2.84327 15.4305 2.84514 15.4417 2.84514C15.451 2.88925 15.4631 2.93264 15.4752 2.97598C15.5023 3.07279 15.5293 3.16933 15.5241 3.27304C15.5335 3.46375 15.5364 3.65315 15.5392 3.84234C15.5432 4.10743 15.5472 4.37209 15.5691 4.63931C15.6141 5.17982 15.6815 5.71281 15.7564 6.25331C15.8238 6.71875 16.0936 7.01903 16.5282 7.18418C16.6331 7.22547 16.7398 7.25925 16.8466 7.29303C16.9534 7.32681 17.0601 7.36059 17.165 7.40188C17.2685 7.44335 17.3613 7.49913 17.4532 7.55441C17.4944 7.57918 17.5354 7.60386 17.5771 7.62709C17.5771 7.63835 17.5753 7.65149 17.5734 7.66463C17.5715 7.67776 17.5696 7.6909 17.5696 7.70216C17.5284 7.72468 17.4872 7.74908 17.446 7.77348C17.4048 7.79788 17.3636 7.82227 17.3224 7.84479C17.2989 7.85657 17.2707 7.86489 17.2421 7.87336C17.1977 7.88649 17.152 7.9 17.1201 7.92737C17.0676 7.97241 17.0227 8.05499 17.0077 8.12255C17.0077 8.15258 17.1051 8.22014 17.1575 8.22765C17.3224 8.24266 17.4947 8.25017 17.6596 8.23516C18.8884 8.10003 20.0722 8.27269 21.2111 8.74563C21.3263 8.79374 21.4354 8.86343 21.5443 8.93297C21.6053 8.97194 21.6662 9.01086 21.7281 9.04591C21.7243 9.05717 21.7187 9.06843 21.7131 9.07969C21.7075 9.09095 21.7019 9.10221 21.6981 9.11347L21.698 9.11344C21.3983 9.03838 21.0987 8.96332 20.799 8.89577C19.5777 8.61051 18.3863 8.75314 17.2025 9.10597C16.8054 9.22608 16.4083 9.3612 16.0187 9.51134C15.0446 9.88669 14.0706 9.92423 13.0815 9.54888C12.2648 9.24109 11.4256 9.0309 10.5415 9.09095C9.73979 9.1435 8.96804 9.31616 8.21128 9.58641C8.0864 9.63146 7.96152 9.66982 7.83664 9.70819C7.7742 9.72738 7.71177 9.74656 7.64933 9.76658C7.64558 9.75907 7.63996 9.74969 7.63434 9.74031C7.62872 9.73092 7.6231 9.72154 7.61936 9.71403C7.65386 9.6901 7.68648 9.66335 7.71888 9.63677C7.77796 9.58831 7.83634 9.54043 7.90408 9.51134C8.03251 9.45922 8.16095 9.40604 8.28953 9.35279C8.75357 9.16063 9.21961 8.96765 9.69483 8.8207C10.0845 8.69558 10.4874 8.6105 10.8903 8.52542C11.0918 8.48289 11.2933 8.44035 11.4931 8.3928C11.6729 8.34776 11.8527 8.29521 12.0251 8.22014C12.1899 8.15258 12.1974 7.9649 12.055 7.84479C12.0447 7.83443 12.0312 7.82725 12.0181 7.82032C12.0028 7.81219 11.9882 7.8044 11.9801 7.79224C11.9715 7.7822 11.9618 7.7716 11.9518 7.76066C11.9095 7.71441 11.8616 7.66208 11.8677 7.61958C11.8752 7.55953 11.9651 7.49197 12.0251 7.47695C12.1899 7.43191 12.3547 7.40188 12.5196 7.38687C13.104 7.32681 13.3737 7.05656 13.3737 6.46351C13.3737 6.04705 13.3639 5.62814 13.3541 5.20958C13.3468 4.89629 13.3395 4.58319 13.3363 4.27147C13.3363 4.12884 13.3513 3.99371 13.3737 3.85859C13.4112 3.63338 13.5011 3.59584 13.6884 3.72346C13.7349 3.75549 13.7803 3.78865 13.8254 3.82162C13.8966 3.87366 13.9672 3.92524 14.0406 3.97119C14.4227 4.1964 14.7824 4.11382 14.9996 3.73097C15.0675 3.5999 15.1165 3.45627 15.165 3.3143C15.1915 3.23672 15.2178 3.15964 15.2469 3.08537C15.2649 3.03582 15.291 2.98627 15.317 2.93673C15.3344 2.9037 15.3518 2.87067 15.3668 2.83764C15.378 2.83764 15.3911 2.83951 15.4043 2.84139ZM10.8787 10.433C10.9286 10.4339 10.9786 10.4347 11.0285 10.4347C11.6879 10.4347 12.3323 10.5098 12.9392 10.7575C13.2239 10.8776 13.4037 11.0728 13.4936 11.3656C13.6884 11.9811 13.7709 12.5967 13.7334 13.2348C13.7109 13.5801 13.5835 13.8579 13.2464 13.993C12.6844 14.2107 12.1225 14.4284 11.553 14.6236C11.2383 14.7287 10.9161 14.8038 10.594 14.8713C9.85218 15.0365 9.3127 14.6161 9.27524 13.8504C9.23778 13.0396 9.63489 12.4165 10.2043 11.8911C10.2209 11.8758 10.2393 11.8608 10.2578 11.8458C10.3394 11.7792 10.4228 11.7112 10.3617 11.6133C10.3317 11.5607 10.1519 11.5607 10.047 11.5833C9.73979 11.6433 9.50002 11.8235 9.28273 12.0337C8.6009 12.7168 8.15883 13.5201 8.10638 14.511C8.10638 14.5946 8.09993 14.6717 8.09301 14.7544C8.09248 14.7608 8.09194 14.7673 8.0914 14.7737C8.08877 14.7987 8.08775 14.8247 8.08674 14.8507C8.08195 14.973 8.0771 15.0969 7.90408 15.1341C7.65682 15.1866 7.43953 15.1341 7.35711 14.9314C7.28219 14.7437 7.23723 14.526 7.24472 14.3308C7.28219 13.2949 7.64184 12.364 8.2937 11.5607C8.87813 10.8476 9.67235 10.5098 10.579 10.4347C10.6789 10.4297 10.7788 10.4314 10.8787 10.433ZM20.4421 13.8898C20.4464 13.8842 20.4506 13.8785 20.4543 13.8729C20.4647 13.8936 20.4749 13.9143 20.4851 13.935C20.5561 14.079 20.6258 14.2201 20.7241 14.3383C20.769 14.4059 20.8739 14.481 20.9264 14.466C20.9938 14.4509 21.0837 14.3533 21.0987 14.2783C21.1212 14.1582 21.1287 14.0155 21.0987 13.8954C20.8215 12.8369 20.252 11.9811 19.3229 11.3956C19.1431 11.283 18.9408 11.2154 18.7385 11.1554C18.6837 11.1389 18.617 11.1625 18.5528 11.1853C18.5292 11.1936 18.5059 11.2019 18.4837 11.2079C18.4962 11.2329 18.5071 11.2588 18.5179 11.2847C18.5395 11.3364 18.5612 11.3881 18.5961 11.4331C18.6306 11.4776 18.6749 11.5123 18.7203 11.5479C18.7439 11.5664 18.7679 11.5852 18.7909 11.6058C19.4878 12.2063 19.75 12.9646 19.5552 13.8579C19.4278 14.4509 18.8734 14.8038 18.2814 14.6912C17.4647 14.541 16.693 14.2708 15.9362 13.933C15.5841 13.7828 15.4267 13.5126 15.3968 13.1522C15.3443 12.5291 15.4043 11.9211 15.5916 11.3205C15.6965 10.9827 15.8988 10.735 16.2284 10.6299C16.6256 10.5023 17.0377 10.3972 17.4572 10.3446C18.0192 10.2695 18.5886 10.2771 19.1506 10.3972C19.75 10.5323 20.282 10.795 20.6941 11.2605C21.4583 12.1238 21.8854 13.1222 21.9154 14.2858C21.9304 14.7887 21.803 14.9389 21.301 14.9839C21.0446 15.0073 20.7882 14.9989 20.5317 14.9904C20.4585 14.988 20.3852 14.9856 20.312 14.9839C20.1846 14.9839 20.1621 14.9014 20.1921 14.7887C20.267 14.5035 20.3419 14.2182 20.4169 13.9405C20.4169 13.9236 20.4295 13.9067 20.4421 13.8898ZM21.1428 16.2387C21.179 16.2359 21.2167 16.233 21.256 16.2301C21.2401 16.262 21.2269 16.2905 21.2153 16.3157C21.1885 16.3735 21.1697 16.4142 21.1437 16.4403C20.6192 16.9958 20.4094 17.694 20.2221 18.3996C20.1784 18.5703 20.1449 18.7435 20.1112 18.9178C20.0871 19.0425 20.0629 19.1677 20.0347 19.2929C20.0133 19.4004 19.9803 19.504 19.9468 19.6093C19.9335 19.6511 19.9201 19.6932 19.9074 19.7358C19.8961 19.7358 19.8868 19.7377 19.8774 19.7396C19.868 19.7415 19.8587 19.7434 19.8474 19.7434C19.8304 19.719 19.8126 19.6963 19.7951 19.6738C19.7585 19.627 19.7229 19.5815 19.6976 19.5257C19.0607 18.1969 17.9518 17.3411 16.7604 16.5604C16.7529 16.5529 16.7454 16.5454 16.7305 16.5454C16.6395 16.5314 16.5421 16.5239 16.4502 16.5168L16.4308 16.5154C16.4357 16.5479 16.4366 16.5829 16.4374 16.618C16.4391 16.688 16.4407 16.7581 16.4757 16.8081C16.6855 17.1112 16.9048 17.4111 17.1233 17.7099C17.2404 17.8699 17.3572 18.0297 17.4722 18.1894C17.712 18.5197 17.9443 18.85 18.1691 19.1878C18.3039 19.398 18.3264 19.7434 18.229 20.0136C18.2081 19.9927 18.1872 19.9736 18.1673 19.9553C18.13 19.9212 18.0961 19.8902 18.0717 19.856C18.062 19.8425 18.0523 19.8289 18.0425 19.8154C17.8792 19.5879 17.7111 19.3537 17.5696 19.1128C17.1426 18.3921 16.723 17.6564 16.3184 16.9207C16.2393 16.7695 16.2085 16.5837 16.1797 16.4098C16.1784 16.4024 16.1772 16.3951 16.176 16.3877C16.1477 16.2232 16.1322 16.0544 16.1166 15.8846C16.1116 15.8297 16.1066 15.7746 16.1011 15.7196C16.0786 15.4719 16.0936 15.4419 16.3333 15.4869C16.676 15.5556 17.0214 15.6326 17.3663 15.7095C17.587 15.7587 17.8074 15.8079 18.0267 15.8547C18.1353 15.8785 18.244 15.9025 18.3526 15.9265C18.8958 16.0464 19.4391 16.1663 19.9823 16.2601C20.1638 16.2932 20.3534 16.2817 20.5422 16.2704C20.6106 16.2662 20.6788 16.2621 20.7465 16.2601C20.8672 16.2601 20.9928 16.2504 21.1428 16.2387ZM11.7214 20.8156C11.7415 20.8071 11.7631 20.7979 11.7853 20.7868C11.8153 20.8619 11.8302 20.8994 11.8602 20.937C11.9501 21.1847 12.0251 21.2297 12.2948 21.1997C12.4896 21.1772 12.602 21.0721 12.6095 20.8319C12.6095 20.6787 12.6014 20.5256 12.5933 20.3724C12.5879 20.2703 12.5825 20.1683 12.5795 20.0662C12.5645 19.7283 12.6919 19.4431 12.9317 19.2104C12.9616 19.1803 12.9916 19.1503 13.0291 19.1278C13.0424 19.1189 13.0557 19.1153 13.0784 19.1091C13.094 19.1048 13.114 19.0994 13.1415 19.0902C13.1494 19.17 13.1593 19.2488 13.169 19.3267C13.1867 19.4687 13.2041 19.6076 13.2089 19.7434C13.2126 19.9307 13.2108 20.12 13.2089 20.3101C13.207 20.5009 13.2051 20.6927 13.2089 20.8844C13.2089 21.1321 13.3363 21.2222 13.5835 21.1922C13.7783 21.1697 13.8533 21.0796 13.8533 20.8544C13.8608 20.0361 13.8608 19.2179 13.8608 18.3996C13.8608 18.2945 13.8608 18.1819 13.8982 18.0843C13.9207 18.0243 14.0106 17.9567 14.0706 17.9492C14.1305 17.9417 14.2354 18.0017 14.2579 18.0543C14.3103 18.1669 14.3403 18.302 14.3403 18.4296C14.3503 18.9407 14.3536 19.4484 14.357 19.9572C14.3586 20.2108 14.3603 20.4646 14.3628 20.7193C14.3628 20.7943 14.3628 20.8694 14.3778 20.9445C14.4077 21.1171 14.5201 21.2072 14.7074 21.1997C14.9172 21.1922 15.0446 21.1021 15.0446 20.9144C15.0496 20.4393 15.0479 19.9608 15.0463 19.4812C15.0454 19.2409 15.0446 19.0004 15.0446 18.7599C15.0446 18.7332 15.0445 18.7063 15.0443 18.6794C15.0434 18.517 15.0424 18.3514 15.0746 18.1969C15.0896 18.1068 15.202 17.9792 15.2694 17.9792C15.3518 17.9717 15.4717 18.0843 15.5017 18.1669C15.5541 18.3095 15.5616 18.4672 15.5691 18.6248C15.5841 19.1016 15.5925 19.5818 15.6008 20.0631C15.6049 20.3016 15.6091 20.5405 15.614 20.7793C15.6215 21.0571 15.689 21.1547 15.8763 21.1847C16.0936 21.2147 16.2584 21.1021 16.2734 20.8619C16.2877 20.6521 16.2808 20.4392 16.2739 20.2252C16.2699 20.1024 16.2659 19.9792 16.2659 19.856C16.2584 19.6608 16.2584 19.4581 16.2809 19.2629C16.3034 19.1053 16.4158 19.0677 16.5282 19.1803C16.6031 19.2554 16.678 19.3605 16.693 19.4656C16.729 19.7238 16.7457 19.9821 16.7625 20.2403C16.7667 20.3049 16.7709 20.3694 16.7754 20.434C16.7792 20.5091 16.7773 20.5841 16.7754 20.6592C16.7735 20.7343 16.7717 20.8093 16.7754 20.8844C16.7829 21.0871 16.8653 21.1772 17.0601 21.1922C17.3823 21.2147 17.5172 21.1922 17.5621 20.8919C17.5669 20.8634 17.5806 20.8409 17.5977 20.813C17.6076 20.7968 17.6186 20.7788 17.6296 20.7568C17.6464 20.7662 17.6633 20.7746 17.6797 20.7828C17.7289 20.8075 17.7738 20.83 17.8019 20.8694C17.84 20.9216 17.8786 20.9738 17.9173 21.0261C18.0233 21.1695 18.1302 21.314 18.229 21.4625C18.3114 21.5901 18.2515 21.6576 18.1166 21.6802C18.0792 21.6877 18.0417 21.6877 18.0042 21.6877H18.0042C16.8952 21.6952 15.788 21.7008 14.6808 21.7064C13.5739 21.7121 12.467 21.7177 11.3582 21.7252C11.1334 21.7252 11.081 21.6351 11.1934 21.4549C11.3207 21.2598 11.4631 21.0721 11.613 20.8844C11.634 20.8527 11.6737 20.8359 11.7214 20.8156ZM9.52625 19.6795C9.51501 19.6777 9.50377 19.6758 9.49253 19.6758C9.4767 19.6282 9.45902 19.5816 9.44144 19.5352C9.40908 19.4499 9.37708 19.3655 9.35766 19.2779C9.19282 18.5873 8.93058 17.9417 8.58591 17.3186C8.51848 17.1985 8.46603 17.0709 8.41358 16.9433C8.30119 16.6655 8.36113 16.5379 8.64586 16.4778C8.75075 16.4553 8.8594 16.4422 8.96804 16.429C9.07669 16.4159 9.18533 16.4028 9.29023 16.3802C10.077 16.2076 10.8637 16.0199 11.6504 15.8247C11.8079 15.7845 11.9654 15.7404 12.1234 15.6963C12.3488 15.6332 12.5752 15.5699 12.8043 15.5169C12.8921 15.4962 12.9835 15.5076 13.0759 15.5192C13.1176 15.5244 13.1595 15.5296 13.2014 15.5319C13.1958 15.58 13.1933 15.6291 13.1908 15.6785C13.1868 15.7603 13.1826 15.8427 13.1639 15.9223C13.104 16.1775 12.9092 16.3277 12.6919 16.4478C11.8827 16.8982 11.1709 17.4762 10.5415 18.1519C10.1968 18.5272 9.89713 18.9326 9.70982 19.413C9.68271 19.4837 9.64384 19.5464 9.60455 19.6098C9.58954 19.6341 9.57446 19.6584 9.55996 19.6833C9.54872 19.6833 9.53748 19.6814 9.52625 19.6795ZM1.04078 23.5419L0.995828 23.4968C1.01496 23.4612 1.03111 23.4236 1.04717 23.3862C1.07513 23.3211 1.10285 23.2565 1.14568 23.2041C1.71513 22.4759 1.93991 21.6051 2.16469 20.7343C2.26062 20.3605 2.35469 19.9864 2.44873 19.6125C2.81743 18.1463 3.18562 16.6822 3.66322 15.2467C4.07532 14.0155 4.58482 12.8294 5.23669 11.7109C5.31661 11.5758 5.40985 11.4473 5.50309 11.3189C5.54971 11.2546 5.59634 11.1904 5.64129 11.1253C5.65253 11.1329 5.66564 11.1404 5.67875 11.1479C5.69187 11.1554 5.70498 11.1629 5.71622 11.1704C5.64878 11.3355 5.58135 11.4932 5.50642 11.6583C5.41265 11.8686 5.31488 12.0776 5.21709 12.2866C4.9867 12.7789 4.75617 13.2716 4.57733 13.7828C3.86553 15.7797 3.35602 17.8366 2.92145 19.916C2.77631 20.5946 2.6507 21.2781 2.52491 21.9625C2.49485 22.1261 2.46477 22.2897 2.43442 22.4534C2.38947 22.6636 2.27708 22.8062 2.08976 22.9113C1.92731 23.0006 1.76853 23.1045 1.61084 23.2077C1.54307 23.2521 1.4755 23.2963 1.40793 23.3392C1.33319 23.386 1.25554 23.427 1.17862 23.4675C1.13214 23.4921 1.08593 23.5164 1.04078 23.5419ZM6.76781 4.49333C6.78632 4.47977 6.80783 4.46401 6.83263 4.44413C6.83712 4.54308 6.84429 4.62316 6.85094 4.6973C6.85539 4.7469 6.85959 4.79385 6.8626 4.842C6.89257 5.24738 6.84761 5.63774 6.67528 6.01309C6.39805 6.62116 6.24071 7.25925 6.20324 7.92737C6.18826 8.09252 6.21823 8.25768 6.2482 8.42283C6.27817 8.58048 6.39805 8.65555 6.5554 8.63303C6.63782 8.62177 6.72024 8.603 6.80266 8.58423C6.88508 8.56546 6.9675 8.5467 7.04991 8.53543C7.10175 8.52505 7.15717 8.53981 7.2137 8.55487C7.23888 8.56158 7.26428 8.56834 7.28968 8.57297C7.27793 8.59887 7.26839 8.62624 7.25899 8.65324C7.2384 8.71233 7.21843 8.76962 7.17729 8.80569C7.0649 8.90328 6.93752 8.97835 6.80266 9.04591C6.39805 9.25611 6.05339 9.53386 5.74619 9.87168C5.65628 9.96927 5.56636 10.0669 5.46147 10.1419C5.40153 10.1795 5.29663 10.1945 5.23669 10.172C5.19173 10.1494 5.15427 10.0443 5.16176 9.98428L5.1659 9.94696C5.21699 9.48608 5.26882 9.01846 5.34908 8.55796C5.56636 7.3193 5.96348 6.12569 6.46549 4.97713C6.52543 4.8345 6.60784 4.69937 6.69026 4.56425L6.69027 4.56424C6.70531 4.53913 6.73041 4.52074 6.76781 4.49333ZM14.6999 17.0484L14.6775 17.0934C14.6018 17.0644 14.5249 17.0368 14.4478 17.0091C14.2652 16.9435 14.0818 16.8776 13.9132 16.7931C13.8308 16.7481 13.7634 16.6054 13.7484 16.5003C13.6734 16.0049 14.0331 15.4944 14.5276 15.3818C14.7599 15.3293 14.9697 15.3743 15.142 15.5244C15.4417 15.7797 15.5916 16.1175 15.5691 16.5154C15.5691 16.6129 15.4867 16.7331 15.4043 16.8081C15.2094 16.9883 14.9622 17.0484 14.6999 17.0484ZM14.599 0.613115C14.6975 0.614342 14.7961 0.615572 14.8948 0.615572C14.9247 0.878317 14.7749 0.938372 14.625 0.975907C14.4924 1.00006 14.3646 1.00479 14.2339 1.00962C14.2022 1.01079 14.1702 1.01197 14.138 1.01344C14.1005 1.01344 14.0631 1.01261 14.0256 1.01177C13.9507 1.01011 13.8757 1.00844 13.8008 1.01344C13.5685 1.02846 13.4936 1.09602 13.4337 1.31372C13.4254 1.34055 13.4172 1.36795 13.4086 1.39638C13.3861 1.47137 13.3614 1.55356 13.3288 1.65154C13.3231 1.64447 13.3177 1.63767 13.3124 1.63111C13.2619 1.56799 13.2293 1.52718 13.2089 1.48638C13.119 1.29871 12.9691 1.23114 12.7668 1.24616C11.4107 1.36627 10.0919 1.63652 8.93807 2.40223C8.60088 2.62564 8.28738 2.8886 7.97464 3.15091C7.85651 3.24999 7.7385 3.34897 7.61936 3.4457C7.57066 3.48699 7.52195 3.53016 7.47325 3.57332C7.42455 3.61649 7.37585 3.65965 7.32714 3.70094C7.31965 3.69719 7.31403 3.69156 7.30841 3.68593C7.30279 3.6803 7.29717 3.67467 7.28968 3.67091C7.31106 3.63878 7.33053 3.60665 7.3498 3.57486C7.38455 3.51752 7.41863 3.46129 7.46201 3.40817C8.0839 2.62744 8.87064 2.08694 9.77725 1.70408C10.8037 1.26117 11.8677 0.998428 12.9841 0.9684C13.1046 0.962654 13.2294 0.904114 13.3519 0.846668C13.3895 0.829073 13.4268 0.811581 13.4637 0.79574C13.5062 0.776775 13.5488 0.753319 13.5914 0.729862C13.6837 0.679039 13.776 0.628216 13.8683 0.623079C14.1089 0.607004 14.3534 0.610053 14.599 0.613115ZM22.6197 16.125C22.5073 16.4853 21.6232 17.5288 21.3534 17.5288C21.364 17.4845 21.3733 17.4413 21.3825 17.399C21.4059 17.2909 21.4281 17.1884 21.4658 17.0859C21.5129 16.9744 21.5698 16.8628 21.6267 16.7513C21.6694 16.6676 21.712 16.584 21.7506 16.5003C21.8981 16.1898 21.8931 16.1851 21.6568 15.9628L21.6457 15.9523C21.7356 15.6971 21.9978 15.4644 22.2601 15.4118C22.2564 15.4484 22.2545 15.485 22.2527 15.5208C22.2508 15.5583 22.2489 15.5949 22.2451 15.6295C22.2451 15.6643 22.2391 15.6971 22.2333 15.7289C22.2279 15.7589 22.2226 15.7881 22.2226 15.8172C22.2277 15.9092 22.2398 15.9978 22.2517 16.0853C22.2572 16.1262 22.2628 16.1669 22.2676 16.2076C22.3874 16.1775 22.5148 16.1475 22.6197 16.125ZM22.2526 17.8666C22.2676 17.8741 22.275 17.8816 22.2825 17.8891C22.2736 17.904 22.2659 17.9189 22.2584 17.9333C22.247 17.9553 22.2362 17.9761 22.2226 17.9942C22.0186 18.308 21.8157 18.6228 21.6127 18.9379C21.2862 19.4446 20.9593 19.952 20.6267 20.4565C20.56 20.57 20.4638 20.6657 20.3695 20.7594C20.3578 20.771 20.3461 20.7827 20.3344 20.7943C20.3095 20.8194 20.2645 20.8244 20.2195 20.8294C20.1971 20.8319 20.1746 20.8344 20.1546 20.8394C20.1546 20.8274 20.1543 20.8152 20.154 20.8029C20.1528 20.7533 20.1516 20.7028 20.1696 20.6667C20.237 20.5316 20.312 20.404 20.4019 20.2839C20.9713 19.5181 21.5408 18.7599 22.1177 17.9942C22.14 17.9675 22.1675 17.9433 22.1957 17.9187C22.2149 17.9019 22.2343 17.8849 22.2526 17.8666ZM17.5396 22.5961H14.64V22.6487C14.4177 22.6487 14.1954 22.6478 13.9731 22.647C13.5285 22.6453 13.084 22.6437 12.6394 22.6487C12.2423 22.6487 11.8377 22.6637 11.4406 22.6862C11.2158 22.6937 11.1484 22.8288 11.2758 23.009C11.3507 23.1216 11.4481 23.2192 11.553 23.3093C11.9801 23.6921 12.4146 24.0675 12.8492 24.4428C12.9031 24.4899 12.957 24.537 13.0109 24.5842C13.4218 24.9435 13.8348 25.3046 14.2653 25.6364C14.6849 25.9592 14.9921 25.9442 15.3742 25.5839C16.2284 24.7882 17.0675 23.9775 17.9066 23.1668L17.9068 23.1667C17.9967 23.0841 18.0641 22.9715 18.1166 22.8589C18.169 22.7538 18.139 22.6637 18.0042 22.6412L17.9836 22.6382C17.8337 22.6167 17.6901 22.5961 17.5396 22.5961Z" fill="#F36F45"/>
</svg>
