<svg width="50" height="30" viewBox="0 0 50 30" fill="none" xmlns="http://www.w3.org/2000/svg">
<path fill-rule="evenodd" clip-rule="evenodd" d="M18.6019 3.26425L18.6019 3.26426L18.6019 3.26426L18.602 3.26426L18.602 3.26427L18.602 3.26427L18.602 3.26427L18.602 3.26427L18.602 3.26428C18.7542 3.29646 18.9069 3.32873 19.0611 3.35464L19.061 3.3546C18.6194 3.12031 18.1777 2.88603 17.771 2.65174C17.8623 2.61046 17.9563 2.56573 18.0525 2.51989C18.3114 2.39664 18.5871 2.26536 18.8751 2.17143C20.0373 1.78483 21.2228 1.62083 22.4548 1.6794C22.5611 1.68337 22.6673 1.68398 22.773 1.68458C23.2916 1.68755 23.7966 1.69044 24.2214 2.08942C24.297 2.16561 24.3543 2.25402 24.411 2.34141C24.4328 2.37497 24.4545 2.40837 24.4771 2.44087C24.4404 2.45769 24.4036 2.47548 24.3667 2.4934L24.3666 2.49343C24.2748 2.5379 24.1813 2.5832 24.0819 2.6166C24.0435 2.63207 24.0001 2.62711 23.9549 2.62195C23.9317 2.6193 23.908 2.6166 23.8843 2.6166C23.7029 2.6225 23.5184 2.62542 23.3325 2.62837L23.3325 2.62838L23.3325 2.62838L23.3324 2.62838L23.3324 2.62838L23.3324 2.62838L23.3324 2.62838L23.3323 2.62838L23.3323 2.62838H23.3323C23.1492 2.63129 22.9647 2.63421 22.7802 2.64003C23.05 2.70976 23.3198 2.74214 23.5872 2.77422C23.769 2.79603 23.9497 2.81771 24.1284 2.8509C24.1774 2.85913 24.2281 2.8669 24.2795 2.8748C24.5939 2.92306 24.9381 2.97591 25.1279 3.1672C25.4954 3.53759 25.7724 4.0194 26.0431 4.49019L26.1042 4.59642C26.232 4.79558 26.2901 5.06502 26.2785 5.29932C26.2705 5.36365 26.1421 5.42798 25.9834 5.50747L25.9834 5.50748L25.9833 5.50749L25.9833 5.50753C25.9108 5.54383 25.832 5.58328 25.7555 5.62734C25.8351 5.6189 25.9026 5.60893 25.9619 5.60018C26.067 5.58466 26.1461 5.57299 26.2204 5.58048C26.325 5.5922 26.4529 5.63906 26.5226 5.72106C26.8364 6.09594 27.127 6.47082 27.4175 6.85741C27.4507 6.90045 27.4852 6.94305 27.5197 6.98569L27.5198 6.98578C27.7391 7.2565 27.9596 7.52879 27.8592 7.92347C27.8359 8.00548 27.7313 8.14606 27.6732 8.14606C27.4351 8.13057 27.202 8.09973 26.9807 8.07045C26.8672 8.05543 26.7568 8.04082 26.6504 8.02891C26.598 8.04925 26.5483 8.07666 26.5009 8.1028C26.4119 8.1519 26.3311 8.19649 26.2553 8.1812C26.1765 8.17127 26.106 8.06034 26.0439 7.96256L26.0438 7.96244L26.0437 7.96229L26.0434 7.96183L26.0432 7.96146L26.0432 7.96141L26.0431 7.96133C26.0322 7.94418 26.0216 7.92745 26.0112 7.91176C25.9864 7.88174 25.9701 7.8389 25.9541 7.79692C25.9326 7.74062 25.9117 7.68588 25.8717 7.66574C25.8286 7.64494 25.7851 7.62322 25.7414 7.60138L25.7414 7.60134C25.5143 7.48787 25.2804 7.37098 25.0466 7.36115C24.4096 7.34426 24.0023 6.98012 23.585 6.60701L23.5849 6.607C23.4235 6.46271 23.2607 6.31707 23.0824 6.18966C23.3381 6.06079 23.5473 5.95536 23.8611 5.80306C23.7911 5.77335 23.7316 5.74716 23.6792 5.72414L23.6792 5.72412C23.5665 5.67455 23.4872 5.63962 23.4078 5.61563C23.2751 5.57206 23.1407 5.53014 23.0059 5.48813L23.0058 5.4881C22.6334 5.37195 22.2584 5.25501 21.9085 5.10017C21.7236 5.01912 21.5721 4.8708 21.4231 4.72502L21.4231 4.725L21.4231 4.72499C21.3567 4.66005 21.2909 4.59561 21.2228 4.53785C21.1976 4.51669 21.1724 4.48942 21.1467 4.46156C21.1012 4.41228 21.054 4.36115 21.002 4.3387C20.5139 4.17469 20.0373 4.02239 19.5492 3.8701C19.5376 3.88767 19.5289 3.90817 19.5201 3.92867C19.5114 3.94917 19.5027 3.96967 19.4911 3.98725C19.5578 4.02926 19.623 4.07729 19.6883 4.12541C19.8051 4.21148 19.9222 4.29781 20.049 4.35041C20.4441 4.5027 20.6533 4.79558 20.7812 5.15874C20.8974 5.51019 20.7579 5.72106 20.4093 5.83821C20.1134 5.9314 19.8249 6.032 19.5321 6.13412L19.532 6.13413L19.5309 6.13452C19.456 6.16065 19.3808 6.18687 19.3051 6.21309C19.3167 6.25992 19.3284 6.29506 19.34 6.33019L19.34 6.33024C19.526 6.28338 19.7119 6.23277 19.8979 6.18216C20.1768 6.10625 20.4557 6.03033 20.7347 5.96707C20.8858 5.93193 21.0717 5.96707 21.2228 6.02565C21.7807 6.24823 22.3153 6.50596 22.6175 7.06828C22.664 7.15028 22.7686 7.23229 22.8616 7.25572C23.3093 7.35988 23.5076 7.70412 23.714 8.06256L23.7216 8.07577C23.8148 8.23225 23.9546 8.36261 24.0926 8.49127L24.0926 8.49129C24.1612 8.55526 24.2294 8.61881 24.2911 8.68494C24.4538 8.84895 24.6049 9.02468 24.756 9.2004C24.8287 9.28911 24.8951 9.39559 24.9606 9.50062L24.9606 9.50064C25.094 9.71463 25.2237 9.92258 25.3952 9.96187C25.856 10.078 26.0656 10.3782 26.2843 10.6915L26.2902 10.6999C26.5923 11.1334 26.8713 11.602 27.0921 12.0823C27.1967 12.3049 27.2432 12.6095 26.9294 12.8086C26.6609 12.979 26.537 12.8235 26.4049 12.6576C26.3826 12.6296 26.3601 12.6014 26.3366 12.5743C25.7788 11.9183 25.1395 11.3911 24.3027 11.1451C22.5245 10.6179 20.8044 10.5476 19.2354 11.7894C19.0146 11.9651 18.6775 12.1291 18.4218 12.0823C17.8172 11.9826 17.2854 12.1658 16.7379 12.3544L16.6436 12.3869C16.6901 12.4572 16.7366 12.5157 16.8412 12.6446L16.7128 12.6196C16.4687 12.5721 16.2557 12.5306 15.9579 12.4806L15.9581 12.4808C16.1207 12.6212 16.202 12.6915 16.3066 12.7852C15.8533 12.7149 15.4349 12.6563 15.0862 12.6095C14.999 12.4117 14.9221 12.2346 14.8493 12.0671L14.8493 12.0671L14.8491 12.0667C14.7668 11.8773 14.6899 11.7003 14.6097 11.52C14.5833 11.548 14.5571 11.5776 14.5305 11.6076C14.3457 11.8161 14.1385 12.05 13.6915 11.9886C13.7328 11.9508 13.768 11.9203 13.7979 11.8944L13.7979 11.8943L13.7979 11.8943C13.8608 11.8399 13.9004 11.8056 13.924 11.766C13.9511 11.7114 13.9742 11.6528 13.998 11.5925L13.998 11.5925L13.998 11.5925L13.998 11.5925L13.998 11.5925L13.998 11.5924L13.9981 11.5924C14.0151 11.5493 14.0324 11.5054 14.0518 11.4614C14.0092 11.4614 13.9653 11.4575 13.9214 11.4536C13.8336 11.4458 13.7458 11.438 13.6683 11.4614C13.5986 11.4848 13.5405 11.602 13.494 11.6957C13.4212 11.8571 13.3575 12.0186 13.2972 12.1714L13.2972 12.1714L13.2972 12.1714L13.2972 12.1714C13.2612 12.2625 13.2265 12.3506 13.1918 12.4337C13.1153 12.4414 13.0337 12.4606 12.9533 12.4795C12.7895 12.5179 12.6307 12.5552 12.5293 12.4923L12.5293 12.4923C11.9714 12.1409 11.4136 11.7894 10.9719 11.3208C10.507 10.8288 10.5651 10.7702 11.2392 10.6179C11.2671 10.6085 11.2876 10.5917 11.3244 10.5613C11.3336 10.5537 11.3438 10.5453 11.3555 10.5359C11.2509 10.5125 11.1928 10.5008 11.1346 10.489L11.1346 10.489C10.8428 10.4266 10.5492 10.3829 10.2553 10.3391L10.2553 10.3391L10.2552 10.3391L10.2552 10.3391L10.2552 10.3391L10.2552 10.3391L10.2552 10.3391L10.2552 10.3391L10.2552 10.3391C9.7766 10.2678 9.29697 10.1963 8.82179 10.0439C7.38062 9.587 6.2765 8.7318 5.26535 7.6306C4.69942 7.01098 4.00242 6.50696 3.3119 6.00763C3.17993 5.91219 3.04819 5.81693 2.91764 5.72106C2.52248 5.4399 1.74379 5.60391 1.39512 5.94364C1.42531 5.95041 1.45647 5.95522 1.48776 5.96005C1.56488 5.97195 1.64278 5.98398 1.70892 6.02565C2.23193 6.34195 2.54573 6.8457 2.69682 7.41973C2.73671 7.57385 2.77683 7.72773 2.81692 7.88147L2.81705 7.88198L2.81728 7.88284L2.81735 7.88313L2.81743 7.88342L2.81751 7.88371L2.81751 7.88372C3.05758 8.80436 3.29637 9.72012 3.47552 10.6531C3.76607 12.1877 4.92831 12.9023 6.13703 13.4881C6.69289 13.757 7.387 13.7687 8.02608 13.7795L8.11283 13.7809C8.60096 13.7927 9.11234 13.6404 9.57724 13.4764C10.0189 13.3241 10.4373 13.2303 10.8906 13.4178C11.4368 13.6404 11.9482 13.6404 12.3898 13.1952C12.7618 13.4764 12.7618 13.5232 12.4131 13.7341C12.355 13.7692 12.2852 13.8161 12.2388 13.8747L11.5065 14.6479C11.4891 14.6361 11.4717 14.6274 11.4542 14.6186C11.4368 14.6098 11.4194 14.601 11.4019 14.5893L11.4019 14.5891C11.3787 14.4369 11.3554 14.2846 11.3206 14.0387C11.1927 14.191 11.123 14.273 11.0533 14.355L11.0533 14.355C10.9719 14.437 10.8906 14.519 10.8092 14.5893C10.7792 14.5348 10.7461 14.4804 10.7179 14.434L10.7178 14.4339C10.6914 14.3905 10.6693 14.3542 10.6581 14.3316C10.5667 14.337 10.4779 14.3449 10.3869 14.353L10.3869 14.353C10.2811 14.3624 10.1725 14.3721 10.0538 14.3784C10.0421 14.4721 10.0305 14.601 10.0189 14.7416C9.79167 14.7451 9.56444 14.7518 9.33754 14.7585L9.33748 14.7585H9.33744H9.33739H9.33735H9.33731C8.80989 14.7741 8.28418 14.7896 7.76415 14.765C7.40386 14.7533 7.02033 14.6361 6.68328 14.4956C6.07599 14.2564 5.47645 13.9861 4.87833 13.7164L4.87829 13.7164L4.87824 13.7164C4.74379 13.6557 4.60941 13.5951 4.47504 13.5349C4.38206 13.4998 4.28908 13.4295 4.23097 13.3475C4.17714 13.2797 4.12207 13.2119 4.06677 13.1438C3.88322 12.9177 3.69708 12.6885 3.54525 12.4454C3.34093 12.1174 3.16124 11.7746 2.98053 11.4297L2.9805 11.4296C2.88368 11.2449 2.78656 11.0595 2.6852 10.8756C2.70069 10.9928 2.73685 11.0995 2.77301 11.2063C2.79109 11.2596 2.80917 11.313 2.82466 11.3677C3.26631 12.7852 4.17285 13.7458 5.46293 14.4487C6.75301 15.1399 8.06634 15.4562 9.5075 15.1399C9.6586 15.1047 9.92591 15.2219 10.0305 15.3625C10.2353 15.6324 10.4134 15.9293 10.5902 16.2239C10.6742 16.364 10.7579 16.5035 10.8441 16.6394C10.8906 16.7214 10.9719 16.8386 11.0417 16.8386C11.4069 16.8616 11.4583 17.1106 11.5151 17.3858L11.5182 17.4009C11.7041 18.3264 11.8901 19.2401 12.1109 20.1539C12.1505 20.3135 12.2332 20.4676 12.315 20.62C12.3533 20.6914 12.3913 20.7624 12.4247 20.8334C12.4421 20.8275 12.4624 20.8187 12.4828 20.81L12.4828 20.8099C12.5032 20.8011 12.5235 20.7923 12.5409 20.7865C12.3209 19.7187 12.0952 18.6508 11.8677 17.5749C11.7708 17.1164 11.6735 16.6563 11.5763 16.1942C11.6456 16.1307 11.7234 16.0655 11.8047 15.9974C12.0234 15.8142 12.2669 15.6101 12.4363 15.3625C12.7245 14.938 12.9386 14.4603 13.1493 13.9903L13.1802 13.9215C13.3313 13.5935 13.5637 13.4178 13.8891 13.3124L13.9232 13.2999C14.1684 13.2102 14.4214 13.1176 14.6213 12.9609C14.8422 12.7852 14.9584 12.7149 15.1676 12.996C15.4 13.3124 15.9695 13.4061 16.3414 13.2538L15.3652 13.0078C15.6193 12.9845 15.8677 12.9785 16.1118 12.9727H16.1119H16.1119C16.3589 12.9668 16.6015 12.961 16.8412 12.9375C17.0128 12.9158 17.1845 12.8587 17.3562 12.8016C17.4634 12.7659 17.5707 12.7302 17.678 12.7032C17.9078 12.6383 18.1394 12.5808 18.3706 12.5234C18.7242 12.4355 19.077 12.3479 19.4214 12.2346C19.6917 12.1447 19.9564 12.0362 20.2207 11.9278C21.0243 11.5983 21.824 11.2703 22.7686 11.4731C23.4194 11.6137 24.0238 11.7777 24.5817 12.1174C24.718 12.2033 24.8482 12.3019 24.9766 12.3991L24.9767 12.3992L24.9768 12.3993L24.9769 12.3994L24.9771 12.3994L24.9772 12.3995C25.0237 12.4347 25.07 12.4698 25.1163 12.504C23.8727 12.0003 21.9666 11.93 21.339 12.3517C22.4199 12.176 23.4311 12.2814 24.4073 12.7383C24.6165 12.8438 24.7792 12.9258 24.6746 13.1601C24.5378 13.1344 24.4028 13.1087 24.2689 13.0833C23.914 13.0159 23.5679 12.9502 23.2219 12.8906C23.2102 12.9492 23.1986 12.996 23.187 13.0428L23.187 13.0429C23.8942 13.0648 24.4486 13.4358 24.9933 13.8003L25.1047 13.8747C25.0379 13.8647 24.9711 13.8558 24.9046 13.8469C24.6589 13.8141 24.4177 13.7819 24.1981 13.6989C23.4892 13.4295 22.7802 13.5115 22.0596 13.6638C21.3042 13.8278 20.5371 13.9684 19.77 14.0738C19.5776 14.0991 19.3792 14.0637 19.1834 14.0288C19.1071 14.0152 19.0313 14.0017 18.9565 13.9918C18.9332 14.0387 18.9216 14.0855 18.91 14.1324C19.2354 14.2378 19.5608 14.3433 19.8862 14.4253C20.04 14.4703 20.1979 14.5024 20.3556 14.5346C20.5675 14.5778 20.7788 14.6208 20.9787 14.6947C21.0573 14.7253 21.1359 14.7561 21.2145 14.7869L21.2148 14.787C22.4616 15.276 23.7163 15.7681 25.1047 15.3273C25.2381 15.2853 25.3776 15.2734 25.5187 15.2614C25.5742 15.2567 25.63 15.2519 25.6858 15.2453C25.7032 15.2687 25.7236 15.2892 25.7439 15.3097L25.7439 15.3098C25.7642 15.3303 25.7846 15.3508 25.802 15.3742C25.7788 15.3859 25.7555 15.3983 25.7323 15.4108C25.6625 15.4481 25.5928 15.4855 25.5231 15.503C25.3759 15.5419 25.2298 15.5871 25.0838 15.6323C24.7455 15.7371 24.4078 15.8417 24.0587 15.8662C23.2866 15.9211 22.5145 15.926 21.7036 15.9311H21.7035C21.4769 15.9325 21.2472 15.9339 21.0136 15.9365C21.5695 16.3817 22.1804 16.4598 22.7807 16.5365C23.0965 16.5768 23.4095 16.6168 23.71 16.7097L23.462 16.7141C22.8836 16.7243 22.3052 16.7346 21.6645 16.7448C22.0518 17.0006 22.4621 17.0166 22.8778 17.0328C23.1857 17.0448 23.4964 17.0569 23.803 17.1666L23.8029 17.1666L23.8028 17.1666L23.8027 17.1667C23.6402 17.2135 23.5589 17.2369 23.4775 17.272C23.4323 17.2915 23.3907 17.3183 23.3346 17.3544L23.3346 17.3544C23.2899 17.3832 23.236 17.4178 23.1637 17.4594C23.3272 17.4289 23.4559 17.4016 23.5697 17.3775L23.5698 17.3775L23.5698 17.3774C23.6744 17.3552 23.7664 17.3357 23.8611 17.3189C23.3148 17.5883 22.7453 17.7992 22.1294 17.4594C22.2223 17.3774 22.2804 17.3306 22.3269 17.2954C22.2393 17.2607 22.1526 17.2252 22.0659 17.1897L22.0657 17.1896C21.8307 17.0934 21.5969 16.9976 21.3507 16.9206L21.3264 16.9133C21.0201 16.8216 20.7025 16.7265 20.3628 16.9206C20.2131 16.8109 20.0396 16.6771 19.8561 16.5357C19.7261 16.4354 19.5912 16.3314 19.4562 16.2294C19.4446 16.2411 19.433 16.2557 19.4214 16.2704C19.4097 16.285 19.3981 16.2997 19.3865 16.3114C19.4108 16.3535 19.4342 16.3945 19.4571 16.4348C19.5106 16.5291 19.5619 16.6194 19.6189 16.7097C19.6015 16.7214 19.587 16.7331 19.5724 16.7448C19.5579 16.7565 19.5434 16.7683 19.526 16.78C19.4366 16.6971 19.3384 16.6186 19.2401 16.5401C19.0192 16.3636 18.7982 16.187 18.6775 15.9599C18.5391 15.6808 18.315 15.5743 18.0893 15.467C17.9929 15.4212 17.8963 15.3752 17.8058 15.3156C18.0848 15.7256 18.3986 16.1122 18.7705 16.4168C20.3279 17.6703 22.0131 18.3849 24.0354 17.6235C24.2098 17.559 24.3928 17.518 24.5759 17.477C24.7589 17.436 24.942 17.395 25.1163 17.3306C25.3371 17.2486 25.5579 17.1197 25.6974 16.944C25.7301 16.8945 25.6419 16.7521 25.5544 16.6109C25.5176 16.5515 25.4809 16.4923 25.4533 16.4402C25.4446 16.4227 25.4424 16.3985 25.437 16.3381L25.437 16.3381L25.437 16.3379C25.4352 16.3178 25.433 16.2937 25.4301 16.2645C26.2902 16.1122 26.7667 15.4328 27.2316 14.7416L27.2134 14.6418L27.2133 14.6412L27.2133 14.641C27.1924 14.5261 27.1679 14.3918 27.1502 14.2847C27.2157 14.2762 27.2799 14.2678 27.3431 14.2595C27.7174 14.2102 28.054 14.1659 28.3822 14.1558C28.4472 14.1545 28.5126 14.1525 28.5781 14.1505C29.0748 14.1352 29.5821 14.1197 30.0442 14.3784C30.1106 14.4119 30.1474 14.4932 30.1884 14.5839C30.2048 14.6202 30.2218 14.6579 30.2417 14.6947C30.0191 14.7006 29.82 14.7036 29.6193 14.7065C29.4219 14.7094 29.2229 14.7123 28.9982 14.7181C30.0325 15.0344 30.0907 15.0696 30.4393 15.4679C30.3934 15.4543 30.3488 15.4407 30.3052 15.4274L30.3051 15.4274C30.1608 15.3834 30.0269 15.3426 29.8931 15.3156C29.796 15.2946 29.6947 15.2862 29.5943 15.2778C29.5264 15.2721 29.4589 15.2665 29.3933 15.257C29.8815 15.3859 30.3812 15.6553 30.5323 15.9599L30.5322 15.9599C30.23 15.9013 29.9279 15.8428 29.6374 15.7842C29.8001 15.9264 29.9756 16.0379 30.1459 16.1463C30.3405 16.27 30.5285 16.3895 30.6834 16.5457C30.9275 16.7917 31.1134 17.1549 31.218 17.5063C31.2645 17.6937 31.1483 18.0686 30.9856 18.1623C30.5904 18.4084 30.1371 18.5958 29.6258 18.5021C29.3845 18.4534 29.1378 18.4385 28.87 18.4222H28.87L28.8699 18.4222H28.8699C28.7506 18.415 28.6273 18.4075 28.4984 18.3966C28.2776 17.9163 27.8359 17.764 27.278 18.0686C27.0688 18.1858 26.7899 18.0452 26.8248 17.7992C26.8713 17.4829 26.9991 17.1549 27.1851 16.8971C27.3343 16.6883 27.5307 16.5211 27.7281 16.3532L27.7282 16.3532L27.7282 16.3531L27.7282 16.3531L27.7282 16.3531L27.7283 16.353L27.7283 16.353C27.8076 16.2855 27.8871 16.2179 27.9638 16.1474C27.7081 16.1825 27.4873 16.2762 27.3013 16.4285C27.1387 16.5626 26.9902 16.7157 26.8408 16.8696C26.7553 16.9578 26.6695 17.0461 26.5807 17.1314C26.3863 17.3196 26.1866 17.5012 25.9874 17.6823L25.9874 17.6824C25.5913 18.0427 25.197 18.4013 24.849 18.8067C23.9541 19.8493 22.9662 20.7162 21.6412 21.1262C21.3516 21.2149 21.0735 21.329 20.7935 21.4439L20.7935 21.4439L20.7935 21.4439L20.7935 21.4439L20.7934 21.4439L20.7934 21.4439L20.7934 21.4439L20.7934 21.4439L20.7934 21.4439C20.4443 21.5872 20.0924 21.7316 19.7119 21.8291C19.0792 21.9866 18.4727 22.2552 17.8643 22.5247C17.5675 22.6561 17.2701 22.7878 16.969 22.9069C16.8761 22.9538 16.7715 22.9655 16.6669 22.9772C15.9347 23.0592 15.2141 23.0709 14.4935 22.7546C14.3799 22.704 14.2633 22.6619 14.148 22.6203C13.7563 22.4788 13.3804 22.343 13.1918 21.8994C13.1918 21.8994 13.1569 21.8994 13.0639 21.9111C13.4636 23.4767 14.6377 24.3183 15.8251 25.1696L15.8882 25.2147C15.7255 25.1679 15.5744 25.121 15.4 25.0625C15.6673 25.7536 16.2949 26.1519 16.9109 26.0348C16.8747 26.0104 16.8412 25.9875 16.8091 25.9654C16.7485 25.9239 16.6927 25.8856 16.632 25.8474C16.6378 25.8298 16.6436 25.8152 16.6494 25.8006L16.6494 25.8006L16.6494 25.8006L16.6494 25.8005L16.6494 25.8005C16.6552 25.7858 16.6611 25.7712 16.6669 25.7536C16.9166 25.8122 17.1663 25.8678 17.416 25.9234L17.4165 25.9235L17.4169 25.9236C17.6666 25.9792 17.9164 26.0348 18.1661 26.0934C18.1661 26.1109 18.1632 26.1285 18.1603 26.146L18.1603 26.1461L18.1603 26.1461C18.1574 26.1637 18.1545 26.1812 18.1545 26.1988C18.01 26.2023 17.8656 26.2109 17.7217 26.2195H17.7216H17.7216H17.7215H17.7215H17.7215H17.7215H17.7214H17.7214H17.7214C17.3793 26.2398 17.0406 26.26 16.7134 26.2105C15.6209 26.0582 14.6097 25.6365 13.6567 25.121C12.9914 24.7652 12.3618 24.3454 11.7308 23.9247L11.7308 23.9247L11.7308 23.9247L11.7307 23.9247L11.7307 23.9247L11.7307 23.9246L11.7306 23.9246L11.7306 23.9246L11.7306 23.9246L11.7306 23.9246L11.7305 23.9246C11.2814 23.6251 10.8315 23.3251 10.3676 23.0475C9.91429 22.778 9.72833 22.4969 9.92591 22.0048C9.93172 21.999 9.92591 21.9931 9.90993 21.977C9.89395 21.9609 9.8678 21.9346 9.83293 21.8877C9.80912 21.9837 9.79208 22.0756 9.7758 22.1635C9.74441 22.3328 9.71585 22.4869 9.64697 22.6257C9.53075 22.8835 9.63535 23.0006 9.83293 23.1295C10.2746 23.3989 10.7162 23.6801 11.1463 23.973C11.4717 24.1897 11.7913 24.4094 12.111 24.629L12.1112 24.6292C12.4307 24.8488 12.7502 25.0684 13.0756 25.285C13.1516 25.335 13.2267 25.3907 13.3022 25.4467C13.4921 25.5875 13.6845 25.7301 13.9007 25.7888C14.7376 26.0348 15.5976 26.2457 16.4577 26.4214C16.8384 26.5019 17.2256 26.5529 17.6125 26.6039L17.6125 26.6039L17.6126 26.6039L17.6126 26.6039L17.6127 26.6039L17.6127 26.6039L17.6127 26.6039L17.6128 26.6039L17.6128 26.6039C17.958 26.6494 18.3029 26.6948 18.6427 26.7611C19.0029 26.8314 19.3865 26.9603 19.6654 27.1829C19.9704 27.4228 20.242 27.7058 20.5138 27.9891C20.6667 28.1485 20.8197 28.3079 20.9787 28.4598C21.1182 28.5887 21.2925 28.7175 21.4669 28.7995C22.0248 29.0573 22.5826 29.2798 23.1521 29.5024C23.2648 29.5485 23.3767 29.5985 23.4886 29.6486C23.8038 29.7897 24.1193 29.9309 24.4538 29.9827C24.7705 30.0259 25.1061 29.9801 25.4421 29.9342L25.4422 29.9342C25.5624 29.9178 25.6826 29.9014 25.802 29.889C26.6388 29.7836 27.464 29.6781 28.3008 29.561C28.4635 29.5376 28.6379 29.4438 28.7773 29.3501C29.5676 28.7995 30.4045 28.3426 31.3924 28.2489C31.4802 28.2415 31.5681 28.2155 31.6793 28.1827L31.6793 28.1827L31.6794 28.1826C31.7446 28.1633 31.8178 28.1417 31.9037 28.1201C31.7493 28.0285 31.6588 27.9799 31.5545 27.9239L31.5544 27.9238L31.5543 27.9238L31.5543 27.9238C31.5252 27.9081 31.495 27.8919 31.4621 27.874C31.5226 27.8597 31.5755 27.8453 31.6234 27.8323C31.732 27.8029 31.815 27.7803 31.9037 27.7803C32.5081 27.7803 33.0427 27.5577 33.5076 27.1829C33.6553 27.061 33.7836 26.9158 33.9127 26.7696C34.0071 26.6628 34.1019 26.5555 34.205 26.4565C35.0418 25.6482 35.8437 24.8164 36.4016 23.7738C36.5122 23.5693 36.6357 23.3704 36.7589 23.1719L36.7589 23.1719L36.7589 23.1718L36.7589 23.1718L36.7589 23.1718L36.7589 23.1718L36.7589 23.1717L36.7589 23.1717L36.7589 23.1717C36.9463 22.8698 37.133 22.5689 37.2733 22.2509C37.3185 22.1397 37.372 22.0306 37.4257 21.9211C37.5928 21.5804 37.762 21.2354 37.6917 20.8099C37.6582 20.6076 37.7531 20.3622 37.8327 20.1564L37.8327 20.1563L37.8328 20.1563L37.8428 20.1305C37.8892 20.025 38.0403 19.8962 38.1333 19.9079C38.9139 20.0038 39.6399 19.7854 40.3624 19.5681L40.3625 19.568L40.3627 19.568L40.3628 19.568L40.3629 19.5679L40.363 19.5679L40.3632 19.5679L40.3633 19.5678L40.3634 19.5678C40.5227 19.5199 40.6818 19.472 40.8413 19.4276C41.247 19.3094 41.6387 19.1631 42.0327 19.0159C42.1467 18.9733 42.2608 18.9307 42.3755 18.8887C42.5885 18.8143 42.7958 18.7225 43.0054 18.6297L43.0058 18.6295L43.006 18.6294L43.0061 18.6294L43.0062 18.6293L43.0063 18.6293L43.0064 18.6292L43.0065 18.6292C43.0939 18.5905 43.1816 18.5516 43.2704 18.5138C44.8626 17.846 46.3619 17.0143 47.6288 15.7959L47.6473 15.7781C48.118 15.3267 48.6034 14.8612 49.3605 15.0462C49.3815 15.0532 49.4068 15.0347 49.4389 15.0111C49.46 14.9957 49.484 14.9781 49.5116 14.9642C49.4553 14.9115 49.3934 14.8658 49.3351 14.8227C49.225 14.7414 49.1276 14.6695 49.1048 14.5776C48.9305 13.8864 48.5469 13.5584 47.8496 13.5818C47.7422 13.5847 47.6349 13.5855 47.5279 13.5862H47.5278C47.2062 13.5884 46.8879 13.5906 46.5827 13.6521C45.9732 13.7713 45.3778 13.9192 44.78 14.0678L44.7798 14.0678C44.614 14.109 44.448 14.1503 44.2815 14.191C44.7232 14.2378 45.1764 14.2495 45.6297 14.2144C46.3154 14.1558 47.0011 14.0738 47.6752 13.9684C48.2331 13.8864 48.5469 14.2027 48.8259 14.5776C48.7471 14.6078 48.6696 14.6319 48.5953 14.6551C48.4391 14.7037 48.2969 14.748 48.1866 14.8353C47.8348 15.1081 47.4948 15.3968 47.1551 15.6851L47.1551 15.6852C46.9113 15.8922 46.6677 16.099 46.42 16.2997C46.321 16.379 46.2225 16.4597 46.1238 16.5405L46.1237 16.5406L46.1237 16.5406L46.1236 16.5406C45.7125 16.8773 45.2986 17.2161 44.8394 17.4712C44.268 17.7933 43.6562 18.0341 43.0444 18.2749L43.0444 18.2749C42.922 18.3231 42.7997 18.3713 42.6776 18.4201C42.5912 18.4546 42.5046 18.4896 42.4177 18.5246L42.4176 18.5247C41.8851 18.7396 41.3427 18.9585 40.7832 19.0995C40.321 19.216 39.8315 19.264 39.3461 19.3115L39.3459 19.3116C39.1967 19.3262 39.0479 19.3407 38.9004 19.3573C38.7998 19.3757 38.7063 19.3651 38.6088 19.3541C38.5824 19.3511 38.5557 19.348 38.5285 19.3456C38.5517 18.9238 38.5633 18.8887 38.9004 18.8418C39.1187 18.8143 39.337 18.7904 39.5546 18.7666L39.5549 18.7665C39.8933 18.7294 40.23 18.6926 40.5624 18.6427C40.6766 18.6286 40.7927 18.6179 40.9092 18.6073L40.9092 18.6072C41.2787 18.5733 41.6506 18.5392 41.9687 18.3966C42.9964 17.9248 44.0064 17.3991 45.0141 16.8746L45.0163 16.8734L45.027 16.8679C45.1659 16.7955 45.3048 16.7232 45.4438 16.6511C45.6878 16.534 45.9203 16.3817 46.1295 16.2059C46.3503 16.0244 46.5682 15.834 46.7861 15.6437L46.7861 15.6436C47.004 15.4533 47.222 15.2629 47.4428 15.0813C47.5 15.0236 47.5802 14.9949 47.6591 14.9667C47.6925 14.9548 47.7256 14.9429 47.7566 14.929C47.466 14.5541 47.2452 14.5073 46.9547 14.5776C46.2806 14.7416 45.5948 14.8353 44.8975 14.7416C44.2612 14.6537 43.6248 14.5856 42.9885 14.5175L42.9877 14.5174C42.7759 14.4948 42.564 14.4721 42.3522 14.4487L42.3086 14.4431C42.0566 14.4112 41.817 14.3808 41.806 14.0152C41.806 13.9684 41.6897 13.8864 41.62 13.863C41.4515 13.822 41.2801 13.7839 41.1086 13.7458C40.9372 13.7077 40.7658 13.6697 40.5972 13.6287C40.5022 13.6065 40.4117 13.5705 40.3229 13.5351C40.2706 13.5143 40.2189 13.4937 40.1672 13.4764C41.5387 13.5818 42.9101 13.6989 44.2699 13.8161C44.2699 13.7927 44.2728 13.7663 44.2757 13.7399C44.2786 13.7136 44.2815 13.6872 44.2815 13.6638L44.2239 13.6577C44.0205 13.6362 43.8091 13.6139 43.6074 13.5818C43.1891 13.5271 42.7707 13.4621 42.3523 13.397L42.3522 13.397C42.143 13.3644 41.9338 13.3319 41.7246 13.3006C41.4667 13.2606 41.2102 13.2179 40.9541 13.1753L40.9536 13.1752L40.9534 13.1752L40.9527 13.175L40.9526 13.175L40.9525 13.175C40.4589 13.0928 39.9669 13.0108 39.4699 12.9492C39.2013 12.923 38.9326 12.9359 38.6592 12.949C38.5659 12.9534 38.472 12.9579 38.3774 12.9609C38.7395 11.8455 38.1787 11.0549 37.6219 10.2699C37.5354 10.148 37.4491 10.0262 37.3662 9.9033C37.3794 9.88564 37.3991 9.86631 37.418 9.84783C37.4492 9.81728 37.4781 9.78903 37.4708 9.77444C37.3314 9.51671 37.1919 9.25898 37.0292 9.01296C36.9645 8.90978 36.8899 8.81416 36.8157 8.71908C36.7298 8.60905 36.6445 8.49976 36.5759 8.38035C36.4821 8.21586 36.3954 8.04704 36.3089 7.87845L36.3087 7.87819C36.1488 7.56659 35.9892 7.25578 35.7856 6.97456C35.3638 6.41335 34.9114 5.87065 34.4595 5.32854C34.2888 5.12379 34.1181 4.91912 33.9493 4.71357C33.9144 4.66671 33.8795 4.63157 33.833 4.60814C32.9831 4.04654 32.2713 3.32252 31.5605 2.59947L31.5604 2.59939L31.5604 2.59933C31.3964 2.43255 31.2325 2.26581 31.0669 2.10114C30.9808 2.01428 30.8813 1.94979 30.7822 1.88555C30.7209 1.84581 30.6598 1.80618 30.602 1.7614C30.6513 1.83092 30.7 1.90043 30.7487 1.96983L30.7488 1.96997L30.7489 1.97012L30.7491 1.97036C30.9299 2.22827 31.1096 2.48464 31.311 2.73375C31.3512 2.7821 31.3913 2.83046 31.4312 2.87873L31.4313 2.87888L31.4314 2.87891C31.6915 3.19311 31.9487 3.5038 32.2408 3.78809C32.5197 4.06925 32.8335 4.3387 33.1706 4.53785C33.4146 4.69014 33.5309 4.85415 33.496 5.13531L33.4889 5.1993C33.446 5.58787 33.4033 5.97425 32.9846 6.31852C33.0427 5.86164 32.9149 5.6742 32.5662 5.53362C32.1943 5.38133 32.2059 4.9713 32.264 4.60814C32.3105 4.30355 32.2175 4.1044 31.8689 4.04582C31.8224 4.1864 31.7759 4.32698 31.7178 4.51442L31.6766 4.48084C31.2044 4.09606 30.7751 3.74617 30.7299 3.10862C30.6844 2.54691 30.3384 2.16468 29.986 1.77532L29.9628 1.74969C29.8466 1.62083 29.7536 1.48025 29.7187 1.29281C29.8815 1.3631 30.0558 1.4451 30.2185 1.52711C29.9744 1.31624 29.7304 1.10537 29.463 0.871068C29.5153 0.871068 29.5618 0.873997 29.6083 0.876926C29.6548 0.879854 29.7013 0.882783 29.7536 0.882783C29.5891 0.542345 29.2955 0.455578 29.0074 0.370458C28.9089 0.341343 28.811 0.312421 28.7192 0.273605C27.7081 -0.171563 26.6969 -0.0192685 25.6974 0.343895C25.4922 0.416289 25.2961 0.518355 25.101 0.619869C24.8541 0.748336 24.6089 0.875918 24.3492 0.941358C23.3265 1.18737 22.2921 1.24595 21.2461 1.28109C20.049 1.32795 18.8519 1.50368 17.8407 2.28858C17.7877 2.33184 17.7347 2.37842 17.6813 2.42531L17.6813 2.42534C17.4889 2.59431 17.292 2.76736 17.0736 2.80404C16.1322 2.95633 15.3884 3.37807 14.8073 4.11611C14.7215 4.23141 14.5966 4.32306 14.4775 4.41046L14.4775 4.41048C14.4514 4.42964 14.4256 4.4486 14.4005 4.46756C14.3244 4.52032 14.2443 4.57111 14.1636 4.62235C14.0472 4.69627 13.9292 4.77113 13.8194 4.85415C13.7259 4.92483 13.6481 5.01129 13.5719 5.0959L13.5719 5.09591C13.5345 5.13753 13.4974 5.1787 13.4591 5.21732C13.2873 5.39051 13.1133 5.56157 12.9394 5.73261L12.9394 5.73266C12.1135 6.54498 11.2882 7.35661 10.693 8.39207C10.512 8.35484 10.3299 8.30933 10.1462 8.26344C9.75181 8.16491 9.35032 8.0646 8.93801 8.04062C7.67118 7.95862 6.5903 7.44316 5.54429 6.78712C5.45677 6.73419 5.36266 6.6879 5.27188 6.64325L5.27187 6.64325L5.27186 6.64324C5.2421 6.62861 5.21269 6.61414 5.184 6.59968C5.17584 6.62434 5.16197 6.64323 5.14639 6.66444C5.13976 6.67347 5.13282 6.68291 5.12589 6.6934C5.28825 6.80538 5.4459 6.92369 5.60346 7.04192C5.87448 7.24531 6.14522 7.44849 6.43921 7.61888C6.78702 7.81555 7.15959 7.97477 7.52981 8.13298L7.52982 8.13299C7.66682 8.19153 7.8035 8.24995 7.93849 8.31007C7.79562 8.65348 8.11002 8.63025 8.29205 8.61681L8.32203 8.61465C8.70556 8.57951 9.04261 8.68494 9.4029 8.80209C9.78644 8.94267 10.2048 8.9661 10.5884 8.67323C10.6814 8.60294 10.8673 8.61465 10.9952 8.6498L10.9954 8.64986C11.9832 8.89585 12.971 9.14185 13.9472 9.38784C13.5405 8.98953 13.0407 8.68494 12.3317 8.63808C12.4712 8.56779 12.5177 8.54436 12.6804 8.45064C12.5701 8.42593 12.4727 8.39977 12.3831 8.37572C12.218 8.33138 12.0798 8.29423 11.9366 8.28663C11.7866 8.27072 11.6366 8.29264 11.4538 8.31936C11.3675 8.33197 11.2739 8.34565 11.1695 8.35693C11.2136 8.27494 11.2517 8.19794 11.2873 8.12592L11.2874 8.12572L11.2874 8.1257L11.2875 8.1256L11.2875 8.12556L11.2875 8.12556C11.3741 7.95074 11.4461 7.80528 11.553 7.68917C12.1806 6.96284 12.8315 6.24823 13.494 5.55705C13.6736 5.36808 13.8795 5.20557 14.0835 5.04462C14.183 4.9661 14.282 4.88796 14.3773 4.80729C14.4998 4.70085 14.6284 4.60214 14.7565 4.50386C14.9808 4.33173 15.2034 4.1609 15.3884 3.9521C16.0509 3.20234 16.8993 3.06176 17.8175 3.13205C18.0816 3.15424 18.3412 3.20912 18.6019 3.26425ZM33.0983 16.6915C33.481 16.7786 33.8622 16.8654 34.2398 16.9557C34.4083 16.9616 34.5769 16.9733 34.7454 16.985C34.9139 16.9967 35.0824 17.0084 35.251 17.0143C35.0534 17.2017 34.6466 17.3423 33.7052 17.3071C33.4157 17.2947 33.1327 17.2198 32.8441 17.1434L32.8441 17.1434C32.5882 17.0756 32.3279 17.0067 32.0548 16.9791L32.0549 16.9792C32.1595 17.0729 32.264 17.1666 32.3803 17.2486C32.5546 17.3657 32.6708 17.4712 32.7754 17.6937C32.8494 17.8521 33.1365 17.9216 33.3971 17.9847L33.3972 17.9847C33.4642 18.0009 33.5295 18.0167 33.589 18.0335C33.6736 18.0548 33.7598 18.0684 33.847 18.0821C33.9992 18.106 34.1544 18.1305 34.3096 18.1975C34.1242 18.2016 33.9447 18.2617 33.7649 18.3219C33.4372 18.4315 33.1082 18.5415 32.7405 18.3146C32.4699 18.151 32.1691 18.1702 32.007 18.5428C32.187 18.0167 31.9724 17.5952 31.7506 17.1595C31.6176 16.8983 31.482 16.6319 31.4272 16.3348C31.6944 16.3817 31.9268 16.4285 32.1592 16.4753L32.1594 16.4754C32.4727 16.5491 32.786 16.6204 33.0983 16.6915ZM34.4972 16.8975C34.4089 16.9152 34.3217 16.9328 34.2398 16.9557C33.9841 16.8386 33.7284 16.7214 33.4728 16.616C33.5056 16.5457 33.534 16.4739 33.5623 16.4027L33.5623 16.4027L33.5623 16.4026L33.5624 16.4025L33.5624 16.4024L33.5625 16.4023L33.5625 16.4021L33.5626 16.402C33.6142 16.2719 33.665 16.1437 33.7401 16.0302C33.8098 15.9365 33.9958 15.8311 34.0771 15.8662C34.3793 15.9834 34.7047 16.1122 34.972 16.2997C35.158 16.4402 35.1812 16.6863 34.9023 16.7917C34.775 16.8416 34.6347 16.8698 34.4972 16.8975ZM29.8915 26.3051L29.8915 26.3051C29.8721 26.3414 29.8508 26.3814 29.835 26.4214L29.835 26.4214C29.9977 26.2925 30.1604 26.1636 30.3115 26.0699L30.4161 26.1754C30.3558 26.2397 30.2987 26.3128 30.2416 26.386C30.1116 26.5525 29.9813 26.7194 29.8117 26.7845C29.5616 26.8769 29.3178 26.9929 29.0737 27.1091C28.5125 27.3762 27.9492 27.6444 27.3013 27.628C26.9759 27.628 26.6388 27.5695 26.325 27.464C26.022 27.3668 25.7231 27.245 25.4234 27.1228L25.4234 27.1228C25.2173 27.0388 25.0109 26.9546 24.8025 26.8783C24.7387 26.8568 24.6707 26.8485 24.6009 26.8399C24.5562 26.8344 24.5108 26.8288 24.4654 26.8197C24.4593 26.8882 24.4498 26.95 24.4406 27.0105C24.4324 27.0639 24.4244 27.1162 24.419 27.1711C24.4519 27.1854 24.4868 27.1996 24.5236 27.2146L24.5236 27.2147C24.5776 27.2367 24.6357 27.2604 24.6979 27.2883C24.689 27.2972 24.6818 27.3062 24.6757 27.3138L24.6757 27.3138C24.6658 27.3262 24.6586 27.3352 24.6514 27.3352C24.0878 27.3352 23.6948 27.0198 23.3001 26.703C23.1901 26.6148 23.0801 26.5265 22.9662 26.4448C22.9197 26.4097 22.8732 26.3277 22.8848 26.2808C22.9492 25.8915 22.7066 25.6819 22.4586 25.4677C22.4379 25.4498 22.4172 25.4319 22.3967 25.4139C22.2746 25.3046 22.1579 25.1881 22.0409 25.0715L22.0409 25.0714C21.8571 24.8882 21.6728 24.7045 21.4669 24.547C21.3158 24.4298 21.0485 24.3947 20.8509 24.4181C20.7944 24.4241 20.7394 24.4386 20.6859 24.4526C20.5304 24.4934 20.3879 24.5309 20.2582 24.3478C20.2368 24.3177 20.2154 24.2886 20.1944 24.26C20.0441 24.0552 19.9123 23.8759 19.9327 23.5161C19.9708 22.5772 20.615 22.2886 21.2236 22.016C21.3592 21.9553 21.493 21.8953 21.618 21.8291C22.8151 21.1848 23.9541 20.5053 24.9536 19.5681C25.4185 19.1347 26.0345 18.9238 26.6853 18.9004C27.0497 18.8769 27.4192 18.8743 27.7904 18.8717H27.7905H27.7907C27.976 18.8704 28.1616 18.8691 28.3473 18.8652C28.3415 18.8828 28.3328 18.9033 28.3241 18.9238C28.3153 18.9443 28.3066 18.9648 28.3008 18.9824C28.3753 19.0274 28.4485 19.0785 28.5221 19.1297L28.5222 19.1298L28.5222 19.1298C28.6783 19.2386 28.836 19.3484 29.0098 19.4041C30.1488 19.7907 30.6485 20.8451 30.3347 21.9697C30.2977 22.1041 30.2937 22.2432 30.2897 22.3841V22.3841C30.2874 22.4643 30.285 22.545 30.2766 22.6257C30.2534 22.8132 30.2301 22.9889 30.2069 23.1529C30.2069 23.0123 29.7304 22.9538 29.6258 22.942C29.6141 22.942 29.6025 22.942 29.5909 22.9303C29.5793 22.9186 29.5676 22.9069 29.5676 22.8835C29.5444 22.7898 29.5444 22.696 29.5444 22.6023L29.5095 22.7077L29.5095 22.7078C29.4979 22.7429 29.4863 22.778 29.4747 22.8015C29.3812 22.9616 29.0023 22.8869 28.7607 22.8394C28.7018 22.8278 28.6511 22.8178 28.6146 22.8132C28.2892 22.778 27.9638 22.7546 27.6383 22.7312C27.2526 22.6978 26.8564 22.6751 26.4696 22.6528L26.4694 22.6528L26.4693 22.6528L26.4064 22.6492C26.0577 22.6257 25.709 22.614 25.3952 22.7429C26.4645 22.778 27.5454 22.8835 28.603 23.0475C29.1795 23.132 29.7276 23.4166 30.2473 23.6864L30.2473 23.6865C30.3039 23.7158 30.3602 23.7451 30.4161 23.7738C30.6834 23.9144 30.9042 24.1604 31.1018 24.3947C31.1715 24.4767 31.1134 24.6876 31.0669 24.8516C30.8577 24.5118 30.6601 24.3361 30.2999 24.6056C30.267 24.6321 30.1968 24.5986 30.1211 24.5623C30.063 24.5346 30.0016 24.5052 29.9512 24.5001C29.7288 24.4769 29.5115 24.464 29.2959 24.4511L29.2957 24.4511C29.1846 24.4444 29.0739 24.4378 28.9633 24.4298C28.9662 24.5189 28.9699 24.602 28.9734 24.6806L28.9734 24.6806L28.9734 24.6807L28.9734 24.6808C28.9837 24.9121 28.9923 25.1044 28.9749 25.2967C28.94 25.6716 29.033 25.9528 29.4514 26.0465C29.5641 26.079 29.6713 26.1339 29.7767 26.188C29.8235 26.212 29.8699 26.2358 29.9163 26.2574C29.909 26.2722 29.9004 26.2882 29.8915 26.3051ZM33.7042 22.1076C33.3319 21.4724 32.9613 20.84 33.3217 19.9547L33.4487 20.0947C33.6462 20.3126 33.8148 20.4987 34.0074 20.6928C34.019 20.6811 34.0422 20.6459 34.0422 20.6225C33.9572 20.0866 33.9694 20.0802 34.3725 19.8677C34.41 19.848 34.451 19.8264 34.4955 19.8024C35.1464 19.4627 35.681 19.4744 36.1226 20.1187C36.137 20.1477 36.1691 20.1677 36.2135 20.1954C36.241 20.2125 36.2731 20.2325 36.3086 20.2593C36.3086 19.9187 36.1183 19.7232 35.9166 19.516C35.7991 19.3954 35.6778 19.2708 35.588 19.1113C36.1459 19.1581 36.4597 19.4744 36.7386 19.8142C37.157 20.3179 37.3314 21.5245 37.0641 21.958C37.0455 21.9111 37.0269 21.8681 37.0083 21.825L37.0083 21.8249C36.9804 21.7602 36.9525 21.6956 36.9246 21.6183C36.8722 21.7837 36.8261 21.9492 36.7806 22.1124C36.6748 22.4924 36.5723 22.8603 36.4016 23.1881C36.2216 23.5262 35.9725 23.8236 35.7232 24.1213C35.6184 24.2465 35.5135 24.3718 35.4137 24.5001C35.3904 24.4826 35.3643 24.4679 35.3381 24.4533C35.312 24.4386 35.2858 24.424 35.2626 24.4064C35.3091 24.2658 35.3556 24.1253 35.3904 23.9847L35.4139 23.8909C35.4773 23.6387 35.5428 23.3782 35.5532 23.1178C35.5532 23.0292 35.4763 22.9351 35.3981 22.8393C35.3625 22.7957 35.3265 22.7517 35.2975 22.7077C35.2787 22.7374 35.2587 22.7671 35.2386 22.797C35.1716 22.8966 35.1035 22.9979 35.0766 23.1061C35.0378 23.247 35.0301 23.3933 35.0223 23.5412L35.0223 23.5414C35.0185 23.6147 35.0146 23.6884 35.0069 23.7621C34.6688 23.7531 34.5623 23.5381 34.4579 23.3274C34.4259 23.2629 34.3942 23.1989 34.356 23.1412C34.1468 22.8249 33.9376 22.4969 33.7401 22.1689L33.7042 22.1076ZM32.5778 13.0663C32.5662 13.0078 32.543 12.9375 32.5197 12.8789C32.5828 12.8048 32.6511 12.7317 32.7199 12.6581L32.72 12.658C32.8795 12.4874 33.0418 12.3138 33.1473 12.1174C33.2707 11.902 33.3358 11.6513 33.4004 11.4028C33.4271 11.3 33.4538 11.1976 33.4844 11.0982C33.5076 10.9811 33.5192 10.8639 33.5309 10.7468C33.6122 9.97359 34.2398 9.61042 34.9255 9.97359C35.0703 10.05 35.1945 10.1717 35.3202 10.2947L35.3202 10.2948C35.4065 10.3793 35.4934 10.4644 35.588 10.5359L35.5881 10.5359L35.5881 10.536C35.8321 10.7234 36.0762 10.9108 36.3435 11.0631C36.4123 11.1016 36.5062 11.0895 36.6054 11.0766C36.6571 11.0699 36.7101 11.0631 36.7619 11.0631C37.0059 11.5081 37.2615 11.9648 37.5171 12.4216L37.5172 12.4219L37.5173 12.422L37.4476 12.4572C37.3676 12.3671 37.2838 12.2769 37.1993 12.1861L37.1991 12.1859L37.1991 12.1858L37.199 12.1858C37.0748 12.0522 36.9491 11.917 36.8316 11.7777C36.6261 11.536 36.3765 11.5424 36.1384 11.5484C36.0533 11.5505 35.9698 11.5526 35.8902 11.5434C36.0475 11.7137 36.2136 11.8841 36.3812 12.0559L36.3814 12.0561C36.5479 12.2269 36.7159 12.3991 36.8781 12.5743C37.1881 12.9013 37.0509 13.1517 36.902 13.4234C36.8109 13.5896 36.7154 13.7638 36.7154 13.9684C36.6219 13.901 36.5437 13.8389 36.4737 13.7832L36.4736 13.7831L36.4735 13.783L36.4733 13.7829L36.4732 13.7828L36.4732 13.7827C36.3607 13.6933 36.2693 13.6206 36.1691 13.5701C35.8848 13.4215 35.5813 13.3017 35.2847 13.1846L35.1929 13.1483C35.1696 13.1366 35.1348 13.1366 35.0999 13.1366C35.065 13.1366 35.0301 13.1366 35.0069 13.1249C34.4142 12.7969 33.8447 12.9258 33.2519 13.1249C33.1184 13.1724 32.9636 13.1397 32.8055 13.1062C32.7297 13.0901 32.6532 13.0739 32.5778 13.0663ZM29.3826 9.98612L29.3826 9.98615C29.4101 10.0792 29.4384 10.1751 29.4747 10.2665C29.0563 10.3836 29.0911 10.6765 29.1725 10.9108C29.3701 11.4731 29.3003 12.0354 29.1841 12.5977C29.1609 12.7266 29.0563 12.8789 28.94 12.9258C28.9009 12.9427 28.8615 12.9599 28.822 12.9773C28.5333 13.1039 28.2356 13.2346 27.9289 13.2655C27.6131 13.299 27.5825 13.0749 27.5525 12.8545V12.8545C27.5405 12.7667 27.5287 12.6795 27.4989 12.6095C27.4749 12.5611 27.5443 12.4685 27.6127 12.3772C27.6438 12.3358 27.6747 12.2946 27.6965 12.258C27.7139 12.2639 27.7284 12.2726 27.7429 12.2814C27.7575 12.2902 27.772 12.299 27.7894 12.3049C27.7917 12.3004 27.7943 12.2955 27.797 12.2904L27.7971 12.2903C27.8087 12.2688 27.8221 12.244 27.8127 12.2346C27.5454 11.93 27.5337 11.5903 27.5337 11.2037C27.5337 10.7741 27.2464 10.4552 26.9671 10.1455L26.9671 10.1454C26.9189 10.092 26.871 10.0388 26.8248 9.9853C26.7541 9.90147 26.6789 9.82064 26.6036 9.73959L26.6036 9.73958C26.4683 9.5941 26.3324 9.44792 26.2204 9.28241C26.1158 9.15354 26.0345 8.89581 26.0926 8.80209C26.1739 8.68494 26.4064 8.60294 26.5807 8.61465L26.6861 8.61736C27.0858 8.6273 27.5077 8.63779 27.8708 8.76695C28.3241 8.91924 28.7541 9.18869 29.1376 9.49328C29.2656 9.58999 29.322 9.78098 29.3826 9.98612ZM30.4916 4.96545C30.4713 4.9713 30.4509 4.97716 30.4277 4.98302C30.4474 5.05242 30.4661 5.12182 30.4847 5.1907L30.4847 5.19074L30.4847 5.19077C30.5321 5.36602 30.5785 5.53786 30.6369 5.69763C30.788 6.16623 30.6601 6.59968 30.4509 7.00971L30.4509 7.00977C30.3579 7.18547 30.265 7.36117 30.1488 7.51345C29.9977 7.7126 29.7885 7.67746 29.6723 7.44316C29.6467 7.39162 29.6144 7.34235 29.5822 7.29336C29.5413 7.23098 29.5007 7.16904 29.4747 7.10342C29.4478 7.02752 29.4184 6.95098 29.3888 6.87397C29.2906 6.61817 29.1904 6.35705 29.1725 6.09594C29.1652 5.96451 29.2393 5.82854 29.3158 5.68801C29.362 5.60306 29.4092 5.51646 29.4398 5.42819C29.488 5.30667 29.514 5.18516 29.5408 5.05977C29.5528 5.00383 29.5649 4.94712 29.5793 4.8893C29.5194 4.88068 29.458 4.8673 29.3961 4.85384C29.2899 4.8307 29.1824 4.80729 29.0795 4.80729C28.6379 4.83072 28.2195 4.4207 28.173 3.97553C28.1497 3.7178 28.0684 3.46007 27.9638 3.21406C27.8592 2.95633 28.1846 2.40573 28.5565 2.35887C29.126 2.30029 29.6141 2.32372 30.0674 2.87433C30.3922 3.2714 30.4088 3.69747 30.4251 4.11558C30.4362 4.40061 30.4472 4.68194 30.5555 4.94787C30.5323 4.95373 30.512 4.95959 30.4916 4.96545ZM24.243 1.63082L24.233 1.60911C24.4887 1.56225 24.7095 1.51539 24.9303 1.46853C25.0178 1.45017 25.1075 1.43756 25.1974 1.42493C25.3942 1.39729 25.5916 1.36955 25.7671 1.28109C26.0253 1.15098 26.2658 0.989638 26.5077 0.827352C26.6578 0.726632 26.8085 0.625547 26.9642 0.531334C27.5337 0.179886 28.7657 0.484475 29.1725 1.10537C29.2368 1.19943 29.2914 1.30158 29.346 1.40386C29.4887 1.67096 29.6318 1.93892 29.9512 2.06599C29.9868 2.08392 30.0087 2.14984 30.0327 2.2218C30.04 2.24389 30.0476 2.26656 30.0558 2.28858C29.1144 1.73797 28.1962 1.85512 27.2664 2.23C26.755 2.42916 26.2437 2.51116 25.7439 2.17143C25.6393 2.10114 25.4185 2.08942 25.3255 2.148C25.2731 2.18572 25.2593 2.28661 25.2436 2.4006C25.235 2.46361 25.2258 2.53061 25.2093 2.59317C24.6709 2.55853 24.4712 2.12558 24.243 1.63082ZM35.1221 15.162C34.8345 15.0587 34.5499 14.9565 34.2166 15.1165C34.6117 15.3859 34.9837 15.6319 35.3788 15.8779C35.3672 15.9014 35.3585 15.9219 35.3498 15.9424C35.341 15.9629 35.3323 15.9834 35.3207 16.0068C34.019 15.421 32.7405 15.5265 31.4853 16.1708C31.4795 16.1415 31.4737 16.1152 31.4679 16.0888L31.4679 16.0887C31.4621 16.0624 31.4563 16.0361 31.4505 16.0068C31.7036 15.9037 31.9588 15.7986 32.217 15.6923L32.2178 15.692L32.218 15.6919L32.2186 15.6916L32.2187 15.6916L32.2188 15.6916L32.2188 15.6915L32.2189 15.6915L32.219 15.6915L32.2191 15.6914L32.2191 15.6914L32.2192 15.6914C32.5765 15.5442 32.9394 15.3948 33.31 15.2453C32.9962 15.2336 32.6708 15.2219 32.3338 15.2102C32.6592 14.6479 33.9725 14.355 34.5304 14.5541C34.9023 14.683 35.2975 14.8939 35.5299 15.2805C35.3898 15.2582 35.2556 15.21 35.1221 15.162ZM28.1613 7.59545L28.2659 7.52516C28.3386 7.56031 28.4105 7.59546 28.4824 7.6306L28.4825 7.63064C28.6982 7.73606 28.9139 7.84148 29.1492 7.9469C29.3817 8.05234 29.6141 8.13434 29.6723 7.81804L29.7952 7.82639C30.093 7.84672 30.3592 7.8649 30.6253 7.8649C30.9391 7.8649 31.2645 8.21635 31.2064 8.53265C31.1948 8.59122 31.1134 8.66151 31.0437 8.69666C30.9728 8.73392 30.902 8.77283 30.8309 8.81186C30.6338 8.92007 30.4351 9.0292 30.2301 9.10668C30.1999 9.11684 30.1642 9.13801 30.1262 9.16052L30.1262 9.16053C29.9891 9.24186 29.8224 9.34073 29.7768 9.00125C29.7687 8.9767 29.7323 8.95786 29.6991 8.94075C29.6848 8.93337 29.6711 8.92631 29.6606 8.91924C29.5365 8.84145 29.4113 8.76561 29.2867 8.69003L29.2865 8.68995C28.9794 8.50378 28.6748 8.3192 28.3938 8.11091C28.3027 8.04415 28.2588 7.90011 28.2159 7.75925L28.2159 7.75923C28.1986 7.70236 28.1814 7.646 28.1613 7.59545ZM23.4609 14.9123C23.2953 14.8892 23.1301 14.8662 22.9662 14.847C23.0104 14.7537 23.0463 14.6647 23.0801 14.5808C23.144 14.4224 23.2004 14.2824 23.2916 14.1675C23.3962 14.0504 23.6519 13.9215 23.7565 13.9684C24.0935 14.1324 24.4306 14.3433 24.7211 14.5776C24.9071 14.7299 24.756 15.0344 24.4771 15.0227C24.1413 15.007 23.8002 14.9595 23.4609 14.9123ZM34.2172 7.13017C34.2036 7.10776 34.1907 7.08645 34.1817 7.06828C34.7628 7.12685 35.3091 7.25572 35.6461 7.87661C35.7679 8.10675 35.9495 8.31177 36.1321 8.51799C36.2284 8.6267 36.3249 8.73573 36.4132 8.84895C36.4016 8.86067 36.3929 8.87531 36.3841 8.88996C36.3754 8.9046 36.3667 8.91924 36.3551 8.93096C36.2474 8.8586 36.1415 8.7845 36.0359 8.71067L36.0358 8.71061C35.868 8.59321 35.7011 8.47651 35.5299 8.36864C35.2619 8.21025 34.9791 8.05927 34.6992 7.90981L34.699 7.90975C34.627 7.8713 34.5552 7.83295 34.4839 7.79461L34.4748 7.79003C34.269 7.68641 34.08 7.5912 34.2747 7.30258C34.3005 7.26783 34.2561 7.19444 34.2172 7.13017ZM35.2219 6.9277C35.2074 6.93941 35.1929 6.95113 35.1812 6.96285C34.9081 6.86913 34.6379 6.77833 34.3677 6.68754L34.3671 6.68737L34.3669 6.68727C34.0969 6.59657 33.827 6.50587 33.5541 6.41224L33.5542 6.4117C33.6472 6.00186 33.7401 5.59202 33.8214 5.19389C34.1209 5.53995 34.4204 5.89527 34.7228 6.25403L34.7234 6.25468L34.7239 6.25533L34.7243 6.25583L34.7244 6.25595L34.7245 6.25607C34.9027 6.46744 35.0818 6.68 35.2626 6.89256C35.251 6.90427 35.2364 6.91599 35.2219 6.9277ZM31.8805 14.7767C32.3454 13.8395 34.5071 13.6287 35.4485 14.3784C35.3908 14.3829 35.3348 14.3942 35.2838 14.4045C35.2011 14.4212 35.1314 14.4353 35.0883 14.4136C34.3862 13.9911 33.7125 14.1971 33.033 14.4049C32.9589 14.4275 32.8846 14.4502 32.8103 14.4721C32.6272 14.5238 32.4487 14.5848 32.2516 14.6521C32.1359 14.6917 32.0137 14.7334 31.8805 14.7767ZM31.0288 12.3813C31.0061 12.1409 30.9833 11.8986 30.5555 11.9066C30.6783 11.8597 30.7926 11.7747 30.9022 11.6932L30.9022 11.6931C31.1762 11.4892 31.4205 11.3073 31.6945 11.8011C31.8805 12.1643 31.7294 12.3869 31.1018 12.6915C31.05 12.6056 31.0394 12.4937 31.0288 12.3813ZM30.756 22.633L30.756 22.633C30.7254 22.4865 30.694 22.336 30.6601 22.1806C31.0088 22.286 31.1832 22.4149 31.1599 22.7312C31.1483 22.8132 31.2413 22.9069 31.311 22.9772C31.5434 23.1998 31.648 23.4575 31.5783 23.7738C31.4272 23.7387 31.2878 23.7035 31.1483 23.6567C31.0786 23.6215 30.9623 23.5629 30.9507 23.5044C30.88 23.2271 30.8199 22.939 30.756 22.633ZM9.32155 12.5977C9.28668 12.668 9.25181 12.7266 9.21695 12.7852L7.75253 12.2229V12.0471C7.80027 12.0397 7.85034 12.0265 7.90015 12.0133C8.00799 11.9847 8.11468 11.9565 8.19418 11.9886C8.29428 12.0301 8.3996 12.0641 8.50523 12.0983C8.81659 12.1989 9.13063 12.3003 9.32155 12.5977ZM26.2262 28.3479L26.2204 28.2958C26.7667 28.2958 27.2897 28.2841 27.8011 28.2724C27.8076 28.2789 27.8104 28.2892 27.8138 28.3011C27.8163 28.3104 27.8192 28.3207 27.8243 28.3309C27.3129 28.4364 26.8015 28.5418 26.2553 28.6472C26.2456 28.5203 26.2359 28.4341 26.2262 28.3479ZM36.3318 9.84472L36.5062 9.669C36.82 10.0087 37.1338 10.3485 37.436 10.6882L37.3779 10.7468C37.0292 10.4539 36.6805 10.1493 36.3318 9.84472ZM29.3701 13.0429C29.2538 13.4412 28.8238 13.6287 28.2311 13.4881C28.5248 13.368 28.7806 13.2699 29.028 13.1749C29.1429 13.1308 29.2559 13.0875 29.3701 13.0429ZM30.8911 21.2778C30.8985 21.2591 30.9061 21.2395 30.9158 21.2199C30.9538 21.2374 30.9939 21.2527 31.0342 21.2681L31.0342 21.2682C31.1294 21.3046 31.2259 21.3415 31.2994 21.4074C31.345 21.4534 31.3558 21.5345 31.3708 21.6474C31.3788 21.7071 31.3879 21.7756 31.404 21.8526C31.1599 21.63 31.0088 21.4894 30.8577 21.3488C30.8713 21.3283 30.8809 21.3039 30.8911 21.2778ZM21.5018 26.4917C21.862 27.0423 21.862 27.0423 22.1642 26.8548C21.9318 26.7377 21.711 26.6205 21.5018 26.4917ZM18.1594 4.13781L18.1595 4.13776L18.1595 4.13774C18.3478 4.06084 18.5358 3.98399 18.7229 3.90513C18.5578 3.9637 18.3926 4.02633 18.2275 4.08895L18.2274 4.08897C17.765 4.26433 17.3025 4.4397 16.8401 4.52602C16.2125 4.65489 15.7825 4.99462 15.4106 5.4515C15.3304 5.54851 15.2551 5.65295 15.1802 5.75685L15.1802 5.75686L15.1802 5.75687C15.0923 5.87882 15.0049 6.00001 14.9108 6.10754C14.8415 6.1851 14.7519 6.24726 14.6453 6.3212L14.6453 6.3212C14.5908 6.35895 14.532 6.39977 14.4691 6.44728C15.3292 6.98617 15.7476 7.81793 15.7825 8.87228C15.8844 8.78823 16.0251 8.75443 16.1604 8.72192C16.3645 8.67287 16.5564 8.62676 16.5844 8.41539C16.2822 8.13423 16.073 7.93508 15.8754 7.72421C15.7918 7.63049 15.7155 7.52927 15.6393 7.42805C15.5249 7.27623 15.4106 7.1244 15.2711 6.99788C14.8294 6.59957 14.8178 6.45899 15.2478 6.02554C15.3245 5.9483 15.3958 5.86402 15.4674 5.77952L15.4674 5.77949L15.4674 5.77948L15.4675 5.77946C15.5804 5.6461 15.6938 5.5122 15.829 5.40464C16.1428 5.14691 16.4566 4.9009 16.8052 4.72518C17.2491 4.50977 17.7046 4.32366 18.1593 4.13784L18.1593 4.13783L18.1594 4.13782L18.1594 4.13781ZM1.96417 7.00965C1.90026 6.95109 1.83926 6.89545 1.77826 6.83982C1.71723 6.78416 1.6562 6.7285 1.59226 6.66991C1.63392 6.84627 1.67557 7.02196 1.71707 7.19697L1.71711 7.19712C1.84927 7.7545 1.97982 8.30509 2.10364 8.8489L1.96417 8.88405C1.94286 8.80884 1.92263 8.73364 1.90249 8.65877L1.90248 8.65876C1.85674 8.48871 1.81146 8.32039 1.75497 8.15772C1.68123 7.91987 1.59814 7.68674 1.51459 7.45234C1.46645 7.31729 1.41817 7.18183 1.37144 7.04479C1.22034 6.61134 0.964653 6.30675 0.476516 6.21303C0.36257 6.19006 0.26352 6.11704 0.163139 6.04305C0.109938 6.00383 0.0563636 5.96434 0 5.93187C0.127846 5.76786 0.255691 5.59214 0.371915 5.42813C0.375433 5.43167 0.378952 5.4363 0.382794 5.44134C0.39164 5.45296 0.402197 5.46682 0.418404 5.47499C0.409206 5.51825 0.396773 5.56315 0.384305 5.60817L0.384303 5.60818C0.349509 5.73382 0.314445 5.86043 0.34867 5.9553C0.380944 6.03121 0.592462 6.04689 0.74357 6.05809L0.778696 6.06074C1.42955 6.09588 1.85957 6.44733 1.96417 7.00965ZM7.21758 14.1793C7.82194 14.6362 9.205 14.7182 9.58854 14.3785C9.06553 14.191 8.60064 14.027 8.07763 14.3082C8.002 14.3421 7.88991 14.3147 7.78091 14.2881L7.7809 14.2881C7.73915 14.2779 7.69785 14.2678 7.65923 14.2613C7.59709 14.2509 7.53265 14.2381 7.46693 14.2251L7.46688 14.2251C7.3851 14.2089 7.30134 14.1923 7.21758 14.1793ZM4.4168 6.17795C3.31268 5.33447 2.19693 4.59643 0.744141 5.31104C0.871987 5.07674 1.27877 4.86588 1.63906 4.84245C2.16207 4.79559 2.63858 4.90102 3.09185 5.18218L4.34706 5.95537C4.37611 5.97293 4.40515 5.98757 4.43419 6.00221L4.4342 6.00221L4.43421 6.00221L4.43422 6.00222L4.43422 6.00222L4.43423 6.00223C4.46329 6.01687 4.49234 6.03151 4.5214 6.04909C4.47491 6.08423 4.44004 6.13109 4.4168 6.17795ZM14.1448 24.8868C14.2843 24.8633 14.54 24.8165 14.8654 24.7462C14.7129 24.6422 14.5761 24.5453 14.4481 24.4546C14.2443 24.3102 14.0631 24.1818 13.8775 24.0667C13.8341 24.0376 13.7638 24.0447 13.6693 24.0542C13.6118 24.06 13.5454 24.0667 13.4707 24.0667C13.7032 24.3596 13.8891 24.5822 14.1448 24.8868ZM28.6609 15.3624C28.4633 15.4327 28.2657 15.5059 28.0681 15.5792C27.8706 15.6524 27.673 15.7256 27.4754 15.7959L27.4754 15.7959C27.4638 15.7607 27.4522 15.7256 27.4289 15.6787C27.6265 15.6026 27.827 15.5264 28.0275 15.4503C28.228 15.3741 28.4285 15.298 28.626 15.2219C28.6415 15.2609 28.6467 15.2895 28.6519 15.3182C28.6544 15.3325 28.657 15.3468 28.6609 15.3624ZM21.7861 8.01717L21.7868 8.01706C22.0045 7.98196 22.2222 7.94685 22.4427 7.91175V7.84146C22.2219 7.86489 22.0011 7.89124 21.7803 7.9176C21.5594 7.94396 21.3386 7.97032 21.1178 7.99375C21.1178 8.01718 21.1207 8.03768 21.1236 8.05818C21.1265 8.07869 21.1294 8.09919 21.1294 8.12262C21.3503 8.08747 21.5682 8.05232 21.7861 8.01717ZM18.7236 3.917C18.7817 3.82328 18.837 3.72956 18.8922 3.63584C18.945 3.54621 18.9977 3.45659 19.0531 3.36697C19.1331 3.3785 19.2137 3.39021 19.328 3.41325L19.3099 3.44844C19.1779 3.70466 19.0571 3.9394 18.7236 3.917ZM19.0531 3.36697L19.0491 3.36639L19.0491 3.36639L19.0607 3.35468L19.0531 3.36697ZM22.1525 23.5044C21.9782 23.7621 21.8155 24.0316 21.6527 24.301C21.7109 24.3362 21.769 24.383 21.8271 24.4416C21.9066 24.3361 21.9892 24.2336 22.0715 24.1315C22.2177 23.9501 22.3631 23.7696 22.4895 23.5747C22.8266 23.0592 23.245 22.7312 23.9075 22.8952C24.0392 22.9284 24.1651 22.9028 24.2934 22.8768C24.3462 22.866 24.3995 22.8552 24.4537 22.8484C24.7094 22.8249 24.9535 22.8132 25.1975 22.8015C25.0645 22.8015 24.9079 22.7494 24.7577 22.6994C24.6718 22.6708 24.588 22.6428 24.5118 22.6258L23.8494 22.4852C23.8145 22.4735 23.7796 22.4618 23.7564 22.4384C23.7331 22.4032 23.7331 22.3681 23.7448 22.3329C23.7912 22.0986 23.8958 21.8878 24.0353 21.7003C23.861 21.876 23.6866 22.0518 23.5704 22.2743C23.5667 22.2819 23.5629 22.2899 23.559 22.298C23.539 22.3399 23.5164 22.3874 23.4774 22.4266C23.4102 22.5029 23.2881 22.524 23.1774 22.5432C23.1351 22.5505 23.0944 22.5575 23.059 22.5672C22.9196 22.6141 22.7685 22.6727 22.6755 22.7781C22.5011 22.9746 22.3539 23.1984 22.2098 23.4174C22.1907 23.4465 22.1716 23.4755 22.1525 23.5044Z" fill="white"/>
</svg>
